<svg width="22.343mm" height="24.715mm" version="1.1" viewBox="0 0 22.343 24.715" xmlns="http://www.w3.org/2000/svg">
 <g transform="translate(-306.08 -138.61)">
  <g>
   <path d="m308.7 163.32s-1.4116.0836-2.0626-.52576c-.76189-.71314-.52578-2.0626-.52578-2.0626l9.4638-9.8682c3.6319 2.1162 6.4411 1.5619 8.8547-.13766 1.7126-1.2059 4.2342-3.978 3.1975-8.1532 1.6821 2.4796.45239 6.5381-1.4964 8.7762-1.4477 1.6626-4.8057 2.8515-7.5225 2.0222z"/>
   <path d="m313.86 148.13c-1.2407-3.2019 1.2999-7.9002 4.7521-9.1402 3.2025-1.1503 7.3522.39003 8.4325 3.195 1.2221 3.1733-1.484 7.8413-4.651 9.0796-2.8223 1.1034-7.4387-.30874-8.5336-3.1344z"/>
   <path d="m314.57 147.78c-1.1038-2.8783 1.3954-7.2104 4.3232-8.1755 2.8549-.94109 6.5806.31516 7.5523 2.8206 1.1075 2.8556-1.3366 7.0627-4.1892 8.178-2.5421.99387-6.709-.27467-7.6862-2.8231z" fill="#fff"/>
   <path d="m315.74 148.84c-.65099-3.2722.94349-5.4642 1.3751-5.9856.46843-.56599 2.2775-2.8744 5.8643-2.7704-2.2648-.95042-5.4104.62948-6.5923 2.1637-.98154 1.2741-2.1637 3.8421-.64709 6.5923z"/>
   <path d="m317.08 144.6 1.9589-.95802.28598.57196c.24308.51476.61092.377.88652.24308.26514-.12883.54338-.37177.34319-.81503l-.25737-.54337 1.4585-.71494.81505 1.6015.77214-.35747c.61485-.27168.92365-.0725 1.1153.25737.22497.38725.28599.90084-.38606 1.2869l-.77214.40036.74354 1.5014-1.8589.95803-.30027-.58625c-.27168-.51477-.78077-.52397-1.1439-.35748-.34931.16015-.68636.54336-.45758 1.0581l.28599.62916-1.3012.61485-.94374-2.0018.42899-.22879c.40037-.20018.40287-.57068.28597-.84363-.11586-.27052-.42898-.60055-.80075-.37177l-.45754.22878z"/>
   <path d="m313.26 153.9.48614-.52906s.83563.23593 1.4728.82934c.53935.50231.72925 1.4585.72925 1.4585l-.47186.47186s-.2142-.89324-.80073-1.4871c-.60063-.60812-1.4156-.74354-1.4156-.74354z" fill="#fff"/>
   <path d="m314.22 152.87.45757-.51476s.88444.20532 1.4156.68634c.56379.5106.91514 1.53.91514 1.53l-.48617.48616s-.29649-1.032-.88654-1.5586c-.503-.44889-1.4156-.62915-1.4156-.62915z" fill="#fff"/>
  </g>
 </g>
</svg>
