<svg width="68.626mm" height="31.664mm" version="1.1" viewBox="0 0 68.626 31.664" xmlns="http://www.w3.org/2000/svg">
 <g transform="translate(-348.09 -66.245)">
  <g>
   <path d="m358.44 95.316c2.6543 2.3971 4.253 2.6164 6.6146 2.5466 2.2635-.06693 3.7759-.90523 6.1846-2.8112 2.7011 2.3737 3.9705 2.824 6.7634 2.8443 2.873.0209 3.7897-.6293 6.6311-2.3482 1.7189.97052 4.0686 2.0397 6.2838 2.282 2.5874.28299 5.6555-.08268 6.8461-2.8443-2.9022 1.3725-4.1452 1.6795-7.0752 1.3931-2.3113-.2259-4.8307-1.2254-6.2035-3.1707-1.2485 1.9596-3.0452 2.8573-6.4658 2.9021-3.5231.04618-6.1385-1.9509-6.9453-3.3073-.8419 1.2395-3.1811 3.8272-6.356 3.8268-3.1605-.000467-3.2829-1.2035-5.004-1.3871-.42292-.0451-1.2738.07383-1.2738.07383z"/>
   <path d="m348.09 85.427s1.0283.22756 1.5397.35284c1.9913.48778 1.4834 2.3066 5.9512 1.5525 2.7512-.4643 4.2088-2.0416 5.7861-4.9333 0 0 2.0725 1.9013 3.2264 2.6972 1.0198.70348 1.4538.94678 3.2411 1.819 2.5479-7.0776 7.7018-11.931 13.613-15.02 7.5228-3.9309 17.417-7.114 24.495-4.9503-4.3072 2.2851-7.221 3.3683-10.205 6.3876-2.9181 2.9524-2.9276 5.1058-2.6584 7.8577.28812 2.9461 3.1262 6.5013 3.1262 6.5013 1.7391.16177 2.8181-.14118 3.8779-.97882 1.853-1.4645 1.868-1.5983 3.0408-2.2454 1.6582 2.4468 3.4703 3.5421 5.7547 4.1672 2.531.69254 4.441.16215 7.8383-.7276-1.8604 2.7097-5.0734 2.8395-8.3647 2.1766-3.3141-.66747-5.3936-3.731-5.3936-3.731s-2.4332 2.7864-6.5484 2.7781c-4.728-.0096-5.3135-2.1219-6.4257-3.2139-2.0876 2.2306-4.089 2.957-6.4397 2.8831-2.2032-.06923-4.2238-.30179-5.8539-3.0758-2.4308 2.6882-4.2308 2.7011-6.5895 2.8729-2.0736.15099-3.9363-.34041-5.7136-1.12-1.365-.59874-3.605-2.6458-3.605-2.6458-1.8604 2.3457-4.0925 3.9999-6.714 4.1084-2.602.10771-5.1178-.01474-6.9782-3.5131z"/>
  </g>
 </g>
</svg>
