<svg width="26.154mm" height="22.7mm" version="1.1" viewBox="0 0 26.154 22.7" xmlns="http://www.w3.org/2000/svg">
 <g transform="translate(-274.91 -109.45)">
  <rect x="276.96" y="109.45" width="21.475" height="21.475"/>
  <g fill="#fff" stroke="#000" stroke-width=".465">
   <path d="m275.74 123.21 4.4327 2.202-.58237 6.6186s1.0688-1.9125 1.5394-2.859c.35388-.71176 1.0162-2.1009 1.0162-2.1009l3.2315 3.0314s-1.383-3.7127-1.5729-5.6624c-.0361-.37112-.0355-.76274.0858-1.1153.44304-1.2875 2.2592-3.4031 2.2592-3.4031l-5.2048 1.6587z"/>
   <path d="m279.49 121.58c-.14842-.2291-.22507-.53306-.17158-.80074.0591-.29561.26399-.57629.51478-.74354.34065-.22718.79603-.31717 1.2011-.25738.31234.0461.63146.21153.82933.45756.16824.20918.24542.50421.22879.77214-.019.30594-.1413.63663-.3683.84262-.33502.30401-.84365.49202-1.2904.42059-.38505-.0616-.73173-.36398-.94375-.69125z"/>
   <path d="m287.82 119.46 4.287 1.5166 4.4083 1.3549s-2.0376.61797-2.9321 1.1728c-.29208.18117-.70516.60748-.72799.95042-.13124 1.9718-.12134 4.7723-.12134 4.7723l-1.6582-4.0039s-1.2138 1.4185-1.7997 2.0222c-.59389.61192-1.7188 1.5975-1.7188 1.5975s1.7291-3.4354 2.0424-5.2981c.0571-.33927.0342-.7613-.0607-1.092-.32573-1.1347-1.7188-2.9928-1.7188-2.9928z"/>
   <path d="m290.95 120.04c-.006-.25792.0788-.54727.26289-.72798.25407-.24933.65522-.35267 1.0111-.34377.45672.0114.94371.18985 1.274.50554.21373.2043.36881.51324.36399.80887-.006.36773-.19809.76117-.48532.99086-.22728.18175-.55904.22312-.84931.20222-.41948-.0302-.87291-.17029-1.1728-.4651-.24998-.2457-.39599-.62023-.40444-.97064z"/>
   <path d="m275.76 116.64c-.46866-.65372-.73126-1.5585-.56623-2.3457.16679-.79564.81478-1.4687 1.4762-1.9413 1.1152-.79684 2.5323-1.3146 3.9028-1.2942.98294.0146 2.0729.31839 2.7704 1.0111.60233.59816.98079 1.5422.88974 2.3862-.0868.80493-.72372 1.4888-1.3144 2.0424-.40507.37966-1.456.80887-1.456.80887l-.28312 1.7997-1.092-1.3346s-1.4716.39003-2.1839.22243c-.8228-.19359-1.651-.6679-2.1435-1.3549z"/>
   <path d="m299.85 111.23-2.0222 2.7097 2.5884.64709-2.4266 1.2538.70776 2.002-2.1233-.68754-.12132 2.9119-2.0626-2.3862-1.6986.76842v-1.4762l-3.1748-.182 2.103-1.5773-1.9413-1.274 2.649-.70776.0405-1.9615 1.6986 1.4155 2.0626-2.2446.32356 2.3053z"/>
  </g>
  <path d="m278.96 113.23s.41198-.41513.88977-.34377c.35281.0527.73123.31843.6673.76842-.0728.51227-.58724.6008-.6673.99087-.0487.23721.13563.71368.13563.71368" fill="none" stroke="#000" stroke-linecap="round" stroke-width=".565"/>
  <path d="m295.24 113.59-.76842 1.7188" fill="none" stroke="#000" stroke-linecap="round" stroke-width=".565"/>
  <circle cx="294.07" cy="116.15" r=".33366"/>
  <circle cx="280.31" cy="116.32" r=".33366"/>
 </g>
</svg>
