<svg width="27.144mm" height="41.357mm" version="1.1" viewBox="0 0 27.144 41.357" xmlns="http://www.w3.org/2000/svg">
 <g transform="translate(-135.22 -35.43)">
  <path d="m139.38 58.067s3.8275-3.7222 6.1894-4.8664c2.6676-1.2923 5.683-2.1546 8.6462-2.0789 1.7236.04407 3.6242.37566 4.9609 1.4647 1.0106.82326 1.6234 2.1641 1.8426 3.449.20906 1.2252-.005 2.5766-.56697 3.6853-.54365 1.0728-1.5912 1.8271-2.5513 2.5513-1.165.87879-2.4387 1.6764-3.827 2.1261-1.509.48881-3.1914.9733-4.7247.56696-1.023-.27112-2.4854-.83358-2.5513-1.8899-.0596-.95612 1.2147-1.571 2.0789-1.9844 1.2036-.57574 2.6476-.70584 3.9688-.51972 1.1734.1653 2.4108.59108 3.26 1.4174.77261.75174 1.3061 1.8532 1.3702 2.9293.0927 1.5561-.42745 3.2775-1.4647 4.4412-.77361.86793-2.0029 1.4573-3.1656 1.4647-1.3112.0083-3.5551-.29564-3.5908-1.6064-.0337-1.2392 2.0776-1.5439 3.3073-1.7009 1.425-.18193 2.9578.23193 4.205.94494.89958.51428 1.6199 1.3637 2.1261 2.2679.49461.88344 1.021 1.9405.8032 2.9293-.19955.90587-.95727 1.7286-1.7954 2.1261-.88237.41846-2.0186.39992-2.9293.04725-.6857-.26556-1.5481-.77889-1.6064-1.5119-.0551-.69398.684-1.2868 1.2757-1.6536.91215-.56556 2.0876-.70736 3.1579-.62805 1.0262.07604 2.1392.35551 2.9059 1.0418.55179.49392.97597 1.9958.97597 1.9958" fill="none" stroke="#000" stroke-linecap="round" stroke-width="1.365"/>
  <path d="m151.33 63.264s.25777-3.4539.11357-5.1724c-.12754-1.52-.86142-4.4942-.86142-4.4942s2.0187 2.4561 3.1627 3.5545c1.0999 1.056 3.5383 2.8993 3.5383 2.8993s-.93367-3.4212-1.5983-5.0607c-.39246-.96807-.86671-1.9058-1.4036-2.8019-.67976-1.1346-1.6969-2.0582-2.2898-3.2405-.61619-1.2287-1.0355-2.5681-1.2757-3.9215-.55929-3.1519-.35267-9.5969-.35267-9.5969s-1.7922 2.2234-2.3151 3.5297c-.47252 1.1804-.68675 3.7521-.68675 3.7521s-1.0374-.19677-1.5391-.0859c-.59493.13147-1.1679.44444-1.6121.86142-.39949.37498-.86477 1.3978-.86477 1.3978s-2.5428-1.5332-3.8914-2.1457c-1.3676-.6211-4.235-1.5396-4.235-1.5396s2.4216 2.378 3.6967 3.4963c1.2016 1.0538 2.5735 1.9114 3.721 3.0238 1.0021.97138 2.0053 1.9792 2.7403 3.1656 1.3552 2.1873 1.8445 4.8117 2.9766 7.1223.88588 1.8082 2.9766 5.2564 2.9766 5.2564z"/>
  <path d="m144.46 44.268c.26624-.47891.77469-.85664 1.3029-1.0023.50269-.13857 1.0988-.07154 1.5535.18375.40113.22523.73083.64197.85193 1.0858.13308.48774.0482 1.0632-.20046 1.5034-.26308.46562-.74155.8454-1.2528 1.0023-.46992.14417-1.035.11188-1.47-.11693-.43793-.23034-.79346-.6786-.93544-1.1526-.14452-.48245-.0944-1.0632.15035-1.5034z" fill="#fffffa"/>
 </g>
</svg>
