<svg width="51.671mm" height="48.254mm" version="1.1" viewBox="0 0 51.671 48.254" xmlns="http://www.w3.org/2000/svg">
 <g transform="translate(-2.8809 -141.34)">
  <g fill="#fff">
   <path transform="scale(.26458)" d="m68.475 556.96c-.6856.0149-1.1645.60013-1.8365.67278-.95554.2641-1.9747.13552-2.9153.44367-.39755.14324-.6365.52101-.93049.77734-.60099.13824-1.2906.28789-1.6198.87828-.08532.30535-.31449.43132-.56464.59096-.35888.23865-.47002.68303-.66683 1.0185-.68751.54655-.95939 1.4069-1.1126 2.237-.26045.65448-.81215 1.1874-.8464 1.929-.21521 2.1977-.23198 4.4181-.08965 6.6215.02901.71137.26573 1.4398.81829 1.9142.32558.48132.29799 1.1337.75552 1.5417.26382.22239.53707.40096.66127.74006.20564.40117.60824.63774.96876.85286.26056.44075.71886.70139 1.1608.91088.32953.41149.91847.86338 1.3379.90954.58124.14157 1.1247.39368 1.5935.76353.98564.45154 2.0895.5488 3.1377.79054.75458.0943 1.4844.31043 2.2275.4518 1.3121.0322 2.6589.083 3.9184-.35241 1.1116-.327 2.2619-.49416 3.385-.76354.54672-.17889.89222-.69339 1.4708-.81138.56148-.15656 1.1718-.37404 1.4739-.91323.49554-.18183.95478-.50382 1.2077-.97772.62172-.25022.99294-.85043 1.2382-1.4326.61043-.43146.74634-1.1862.8861-1.8667.31569-1.0757.87613-2.1428.67981-3.3-.16224-.96576-.69333-1.8489-.69786-2.8506-.01195-.69747-.31831-1.3425-.781-1.8526-.37922-.48943-.45392-1.165-.98463-1.5449-.27947-.27161-.3073-.73038-.60656-1.0031-.4378-.42314-.84388-.87833-1.2437-1.3352-.30558-.2177-.61862-.40032-.87485-.68089-.26799-.20206-.56458-.33612-.69177-.66772-.32502-.44407-.85115-.69295-1.3713-.80016-.50873-.53129-1.1767-.87499-1.904-.98265-.4746-.03-.67294-.54207-1.0994-.68585-1.0289-.46131-2.2-.27305-3.277-.5491-.9657-.10957-1.8228-.68919-2.8068-.67389zm14.525 8.3859c.04795.20416.01274.0608 0 0zm-2.1054 12.638c-.09007.19311.07392-.17071 0 0z"/>
   <path transform="scale(.26458)" d="m142.53 537.33c-1.525.005-3.009.43176-4.489.73566-.70172.2465-1.0041.96901-1.6696 1.2698-.4823.68264-1.2611 1.1704-1.4891 2.023-1.3664 1.247-.88244 3.2826-1.6168 4.832-.39618 1.3773-.51865 3.0013.17634 4.301.5858.71275.36191 1.8143 1.1581 2.4151.5012.6388.73103 1.4949 1.4703 1.9254.29755.93133 1.3313 1.085 1.9387 1.7206.50277.39378 1.1242.58421 1.5083 1.117.64956.47025 1.5301.43606 2.1249 1.0208 2.0305.8775 4.3399.69008 6.4918.4994.95914-.0792 1.8767-.39987 2.7182-.82691.71359-.32032 1.5113-.54035 2.0023-1.1998.90243-.3808 1.431-1.2257 2.0484-1.9303.34909-.58837 1.1393-.94515 1.1436-1.7451.34778-1.0042 1.1639-1.8651 1-3.0053.0183-1.3626-.0509-2.7728-.75589-3.9794-.31294-.77704-.3311-1.728-1.0782-2.2632-.64328-1.0829-1.3287-2.1967-2.3128-2.9957-.6585-.41173-1.1347-1.1024-1.893-1.383-.39137-.71045-1.2226-.84952-1.9189-1.0533-1.1209-1.1335-2.8223-.91313-4.2473-1.3014-.76373-.12024-1.537-.18236-2.3103-.17633z"/>
   <path transform="scale(.26458)" d="m147.86 570.91c-.93538.014-1.9734.0286-2.6852.72998-.77689.31116-1.7869.38232-2.1739 1.2585-.57225.27989-.97253.81742-1.2176 1.3935-1.0243.84839-.88034 2.2809-1.1091 3.4522-.70376.15818-1.3984.40407-1.9938.80183-1.173.29397-2.4885.25508-3.4936 1.0066-1.1016.3954-2.4912.11387-3.3651 1.0414-1.2022.2993-2.56.21327-3.5929.99487-1.1103.24761-2.3541.21646-3.2781.9729-1.1465.37807-2.4955.20961-3.4844.99697-1.1577.33644-2.5638.12712-3.4823 1.0444-1.197.27482-2.5179.25684-3.5472 1.013-1.0999.25772-2.4256.12165-3.272 1.0071-1.1318.24027-2.4185.15306-3.3582.91553-1.2292.3607-2.6815.20143-3.693 1.0993-1.1174.2596-2.3987.16208-3.3245.94134-1.1516.3057-2.4914.19429-3.448.99749-1.1261.25088-2.354.29399-3.3378.95075-1.1984.42655-2.7007.13489-3.6734 1.0819-1.075.27194-2.3012.21125-3.2183.90821-1.1758.33344-2.4856.30809-3.5198 1.0334-.95892.29856-2.0365.19197-2.9276.68115-.58167.54712-1.4547.42472-2.18.60634-.44036.0147-1.0041.2984-1.295-.16692-.70418-.75871-1.4659-1.471-2.3331-2.0324-.99862-1.0147-2.5628-.81077-3.8613-.92756-1.3474-.005-2.9019-.0591-3.9474.94186-.79397.44803-1.5559.98374-2.041 1.776-.69723.6371-1.1311 1.4874-1.3208 2.4073-.3833 1.0574-.5923 2.2075-.25427 3.3095.37558 1.2281.36068 2.748 1.4992 3.5779.31473.40879.51676.96027 1.0467 1.17.72537.41177 1.3378 1.0656 2.1983 1.224 2.0428.48564 4.2942.52534 6.247-.32296.58808-.38919 1.1586-.80663 1.8316-1.0512.42097.34512 1.0269.3292 1.3644.78404.62786.4704 1.4069.68969 1.9589 1.2596.55727.28142 1.1071.56033 1.5878.96924.48809.36406 1.1067.46948 1.5243.92878.56487.37367 1.2105.61673 1.6956 1.1032.39904.28984.92791.32333 1.2456.73242.64559.48687 1.4118.77671 2.0244 1.3056.53501.24476 1.0875.44498 1.5147.87193.51531.33359 1.0942.55048 1.5055 1.0224.56643.35746 1.2532.5141 1.7252 1.0198.88471.40301 1.5589 1.1706 2.5115 1.4638.43745.27708.75436.80634 1.3278.86757.73504.31632 1.2815.95583 2.0633 1.1808.51737.50659 1.2168.76628 1.7848 1.1844.51222.6706 1.4352.67451 2.0147 1.258.58601.35883 1.1833.67995 1.728 1.0989.90325.37377 1.5727 1.1395 2.4968 1.4669.64208.61712 1.5209.89099 2.1619 1.505.55234.36448 1.2544.44548 1.7053.96261.4848.30201 1.0113.52624 1.3756.98284.53643.39556 1.2679.44666 1.7133.9879.52435.33904 1.1227.54201 1.5805.98546.61342.38286 1.2529.71185 1.8237 1.1564.90008.33141 1.5922 1.0266 2.4681 1.4124.72363.66161 1.6612 1.0133 2.4381 1.6038.51728.22398 1.0021.47832 1.4234.85742.57638.3544 1.2021.62453 1.6841 1.1116.47216.26382 1.027.36771 1.3846.81264.5788.39795 1.236.64876 1.7632 1.1211.63997.35369 1.2682.71316 1.8542 1.1483.83339.33377 1.4836.98813 2.3171 1.33.52208.57135 1.2787.76529 1.8984 1.1905.49078.59194 1.3261.64431 1.8448 1.1984.65531.42914 1.3848.73562 1.9555 1.2829.28541.2817.10907.84213.17939 1.2389.091.98744-.18184 2.0588.23088 2.9796.37179.464.73173.93285.89788 1.5203.24075.78624.96244 1.1896 1.5721 1.6478 1.0339 1.0258 2.5458 1.2782 3.9338 1.4282 1.451.0634 2.9447-.277 4.2004-1.0092 1.1089-.7919 2.1539-1.7931 2.5943-3.1077.85709-1.1754.77992-2.7575.55298-4.1239-.27879-.74134-.71435-1.4142-.99296-2.1596-.4406-.85085-1.2928-1.3697-1.9744-2.0105-.90652-.65329-2.0567-.78422-3.0809-1.1691-1.3926-.17091-2.7719.30043-4.0691.74916-.47014.14873-.81001.56604-1.2556.72772-.55731.0892-.82732-.55228-1.333-.6747-.6232-.12234-.86735-.86677-1.5229-.94988-.6986-.25299-1.1174-.93831-1.8555-1.1216-.62275-.42601-1.2526-.86757-1.9318-1.1904-.47771-.79395-1.5385-.67752-2.1273-1.3367-.50118-.43329-1.1582-.58617-1.6433-1.0439-.68968-.38579-1.3352-.83672-2.0094-1.2426-.76467-.21005-1.2092-.91391-1.9447-1.1917-.48387-.25535-.80709-.78523-1.392-.88754-.743-.1295-1.1222-.87238-1.8351-1.0913-.60607-.46345-1.2229-.97473-1.9812-1.1949-.42417-.39134-.92782-.70427-1.4778-.89181-.51587-.3977-1.0276-.81011-1.6497-1.0379-.57843-.51266-1.3269-.78398-1.9359-1.2368-.51288-.55053-1.3179-.6138-1.857-1.1335-.51776-.34736-1.0927-.59382-1.4935-1.0823-.5053-.33892-1.1179-.48005-1.5784-.90108-.48653-.42449-1.145-.55941-1.5604-1.0684-.5211-.41254-1.2506-.45531-1.6801-1.0078-.40861-.46286-1.0816-.43334-1.4773-.88728-.60251-.47305-1.3704-.6824-1.8954-1.2572-.62315-.31418-1.2853-.56148-1.8302-1.0209-.49939-.23022-.93253-.53803-1.3599-.87803-.5431-.33452-1.1835-.49189-1.6249-.97779-.53594-.34061-1.1046-.60714-1.5787-1.0379-.54167-.35367-1.1719-.49897-1.6377-.96331-.5914-.40309-1.2749-.64489-1.8042-1.136-.91626-.43716-1.7074-1.0824-2.6207-1.5269-.5203-.69939-1.4932-.71754-2.0647-1.3572-.47824-.34423-1.053-.52531-1.4361-.98947-.5732-.33499-1.2609-.48317-1.7256-.99732-.57969-.35685-1.1871-.6532-1.7261-1.0735-.53954-.27361-1.0952-.50523-1.5276-.94238-.51839-.34989-1.1496-.5027-1.5569-1.0031-.53069-.40819-1.2342-.47397-1.7076-.96436-.54713-.35687-1.181-.60631-1.5337-1.1947-.2752-.36543.003-.91628.129-1.318.21947-.40827.06697-1.0092.57112-1.1996.55317-.36501 1.313-.25496 1.9512-.43021 1.8634-.29092 3.6323-.96802 5.4603-1.4106 1.6504-.52641 3.3295-.95005 4.9769-1.4841 2.0106-.52427 3.9996-1.1275 5.9917-1.7167 1.4005-.45966 2.8539-.73532 4.2423-1.2404 1.2749-.33009 2.5357-.70579 3.7969-1.0852 1.5165-.39067 2.977-.90549 4.4733-1.2637 1.7126-.6479 3.5358-.93981 5.2557-1.5713 1.2814-.31953 2.5579-.65464 3.7956-1.1197 1.4128-.28922 2.7759-.76318 4.1601-1.1576 1.4801-.39391 2.9222-.92281 4.4205-1.253 1.639-.58016 3.3554-.89712 4.9855-1.5023 1.7765-.36443 3.4509-1.0896 5.2265-1.4544 1.1467-.45756 2.359-.71036 3.5536-1.0127.55008.0863.63512.71086 1.0897.96767.66162.39078 1.1572 1.0672 1.9433 1.2644 1.2842.45093 2.64 1.0323 4.0227.65089.96503-.14919 1.8718-.52239 2.745-.92966.67685-.53182 1.4357-1.116 1.8426-1.8574.0744-.055-.11807.0827.13005-.0994.93908-.5665.69382-1.826 1.1484-2.6958.48652-1.3577-.16142-2.7594-.43631-4.0888-.46971-1.1383-1.4583-1.9318-2.2545-2.8193-.76213-.568-1.7623-.63027-2.5609-1.1429-.43408-.20451-.91661-.26955-1.3926-.25024zm5.3476 11.107c-.006.002.0134-.0158 0 0zm-.002.00087c-.0502.0366.0169-.022 0 0zm-61.499 32.834c-.069-.14666-.03948-.11483 0 0zm11.896 3.0436c.11304.0233-.11026-.0175 0 0zm-7.278.1906c-.09408-.0165-.17106-.0425 0 0zm16.091 9.9996c-.007-.00024-.0323-.007 0 0zm13.643 3.9976c.0306.0689-.0221-.0434 0 0zm11.12 6.8734c.0967.19329-.0579-.0965 0 0zm1.19 5.1974c-.0148-.00038-.0624-.0145 0 0z"/>
   <path transform="scale(.26458)" d="m139.88 594.03c-.82934-.0712-1.539.37653-2.2801.65325-.97471.26084-2.1788.0461-2.8885.92146-.3377.45688-1.0316.35526-1.3846.82764-.2287.3262-.47632.57835-.83706.75858-.43119.31799-.62092.83334-1.0712 1.127-.55734.5028-.37729 1.3719-.96366 1.8518-.6933.94212-.50455 2.2137-1.0006 3.2253-.82045.89357-.48956 2.1441-.55367 3.2378.0517 1.0988-.11909 2.2195.11457 3.3003.21301.50647.82251.72363.83553 1.3162.12903.70681.48784 1.3671 1.0471 1.8059.62392 1.2097 1.7086 2.0795 2.5746 3.0959.37244.66134 1.2025.75985 1.6058 1.382.45624.47244 1.1567.56144 1.5655 1.0816.81922.55054 1.8612.63391 2.6535 1.2397 1.2848.49294 2.7049.42192 4.0234.79241 1.8518.11508 3.6933-.27129 5.5145-.55728.94989-.1343 1.6431-.89085 2.5937-1.0331.56986-.13449 1.083-.4723 1.4326-.91222.74923-.215 1.0833-.96855 1.7266-1.3257.45501-.44608.77633-1.0059 1.1801-1.4976.15358-.37916.38506-.67678.70591-.9307.72394-.91212.58248-2.1679.93789-3.2285.33859-1.0961.41841-2.2712.0549-3.3726-.33773-.9663-.30886-2.0121-.6203-2.9778-.26905-.54518-.7966-.94789-.83461-1.6021-.10454-.54637-.56466-.90061-.9143-1.2626-.6459-1.439-1.9606-2.4016-2.9879-3.5482-.83075-.46965-1.4545-1.3075-2.437-1.5002-.66481-.22189-1.1097-.84731-1.8419-.92616-.37874-.0919-.80551-.0918-1.0072-.47869-.92914-.82982-2.2852-.52508-3.4145-.77393-1.2101-.11237-2.2935-.76433-3.5289-.68935zm-5.2816 22.956c-.0702-.0182-.20858-.0694 0 0zm18.29.98633c-.0453.0977.0477-.11251 0 0z"/>
  </g>
  <g fill="none" stroke="#000" stroke-width=".26458px">
   <path d="m3.1404 152.72 11.159-.35914s-.37929-1.5467-.23386-2.3052c.17257-.9001.59711-1.8161 1.2695-2.4388.66624-.61702 1.6043-.95917 2.5057-1.0691 1.0023-.12221 2.0604.0905 2.9901.48443.80595.34149 1.5872.86429 2.1047 1.5702.38004.51836.56946 1.1814.63476 1.8208.05593.54761-.21716 1.637-.21716 1.637l6.2641-.46773s-1.3197-2.2758-2.088-3.3409c-1.2078-1.6742-3.9486-4.7711-3.9486-4.7711s.77418.0406 1.1589.0855c3.131.36554 9.3377 1.495 9.3377 1.495s.19558-1.3179.53454-1.8709c.3418-.55759.8478-1.0516 1.4366-1.3364.73021-.35313 1.5953-.40656 2.4054-.3675.90646.0437 1.855.2115 2.6393.66818.6398.37257 1.233.92844 1.5368 1.6036.22464.49928.23146 1.0983.13364 1.637-.11661.64208-.83522 1.7707-.83522 1.7707s4.0891 1.3099 6.0976 2.0656c1.7216.64775 5.0973 2.1138 5.0973 2.1138s-3.931.91449-5.8792 1.439c-.91512.24635-1.8564.42905-2.7277.80181-.38372.16416-.84783.28151-1.0849.62497-.25189.36487-.18308.87067-.21226 1.3131-.15053 2.2824.19591 6.8594.19591 6.8594s5.1027 1.6976 7.7155 2.3178c1.0073.23911 3.0588.5386 3.0588.5386s-2.9439 1.9392-4.5159 2.7274c-1.0419.52233-2.6317.84376-3.239 1.3168s-.66412.9044-.66412.9044l.40426 12.419.14174 6.7651-.51699.0812s-3.2388-4.4961-4.7897-6.7914c-1.2512-1.8518-3.6415-5.6294-3.6415-5.6294s-3.2812 3.3064-5.028 4.8443c-1.201 1.0573-2.4427 2.0726-3.7418 3.0068-1.4283 1.0271-4.4434 2.8481-4.4434 2.8481l-.54289-.30069s2.3229-4.6648 3.493-6.9928c.86178-1.7145 1.7754-3.4035 2.5981-5.1372.52852-1.1137 1.2661-2.1698 1.501-3.38.0722-.37191.10067-.78378-.03914-1.1359-.3375-.84996-1.1562-1.4226-1.8122-2.0599-1.1114-1.0797-3.5776-2.9681-3.5776-2.9681s-.01114 5.2308-.0167 7.8462c-.0056 2.6242-.0167 7.8726-.0167 7.8726l-.7684.10022s-1.6933-2.9272-2.5057-4.41c-1.5187-2.772-4.4267-8.3856-4.4267-8.3856s-2.2648 3.0983-3.5413 4.5269c-1.1282 1.2625-2.3537 2.4396-3.6248 3.558-.85135.74908-2.6727 2.1047-2.6727 2.1047l-.593-.21715s5.2456-13.711 5.7546-15.919c.0757-.32843.09897-.75835-.13364-1.0023-.86288-.90484-3.5427-2.5806-5.2118-3.9976-1.0651-.90427-2.1054-1.8448-3.0569-2.8679-.65649-.70586-1.8208-2.2467-1.8208-2.2467z"/>
   <path d="m15.308 151.43c-.18246-.63755-.06248-1.3535.14174-1.9844.19066-.58901.47349-1.2204.97835-1.5787.60995-.43291 1.4442-.5359 2.1906-.48631.82782.055 1.6751.35605 2.337.85618.54989.41546.97996 1.0252 1.2146 1.6732.22124.61105.3299 1.3268.13028 1.9452-.18211.56418-.62444 1.067-1.1339 1.3702-.77242.45956-1.7497.58921-2.6458.51971-.73514-.057-1.4898-.31243-2.0789-.75595-.51338-.38654-.95711-.94133-1.1339-1.5592z"/>
   <path d="m35.402 143.79c.19436-.54127.55167-1.0805 1.0485-1.3702.5625-.32791 1.2889-.35084 1.9348-.26865.68467.0871 1.3691.36597 1.9142.78936.48188.3743.89656.88996 1.0948 1.467.21768.63369.3266 1.4033.04151 2.0097-.29094.61879-.969 1.0282-1.6064 1.2757-.63282.24574-1.376.31776-2.0316.14174-.67921-.18234-1.2644-.6707-1.7481-1.1812-.31582-.33329-.59419-.73653-.7087-1.1812-.13995-.5434-.12855-1.1542.06109-1.6823z"/>
   <path d="m37.114 157.1c.88767-.0473 1.8059.2559 2.5709.7087.70594.41787 1.3617 1.0248 1.7147 1.7653.3526.73958.51689 1.6529.29159 2.4406-.18282.6392-.69529 1.1863-1.248 1.5558-.65464.43763-1.4805.67382-2.2679.66145-.7619-.012-1.5239-.31022-2.1734-.7087-.58851-.36107-1.1389-.85591-1.4647-1.4647-.30314-.56642-.41509-1.2485-.37798-1.8899.04417-.76336.1828-1.6252.70633-2.1824.55154-.58712 1.4439-.84336 2.2483-.88623z"/>
   <path d="m29.927 156.94s-.40319 1.9189-.48058 2.8935c-.05968.75169.01384 2.2621.01384 2.2621l-3.43.48107s-.10114-.97135.05011-1.4203c.3139-.93169 1.0359-1.6854 1.7009-2.4096.63241-.68874 2.1457-1.8068 2.1457-1.8068z"/>
   <path d="m37.148 169.49s.85849-.55374 1.3347-.51973c.55922.0399 1.1336.37434 1.4647.82683.30638.41881.4116 1.0132.31891 1.5237-.08662.47717-.36763.9725-.77958 1.2284-.44062.27372-1.0465.30051-1.5473.16536-.46226-.12475-.91728-.4363-1.1576-.85044-.24263-.41821-.16536-1.441-.16536-1.441l-16.454-10.312s-.70635.57541-1.136.6321c-.53852.0711-1.1584-.0543-1.5807-.39586-.36145-.29232-.54301-.79268-.61421-1.2521-.07744-.49963-.04169-1.0702.22442-1.5001.27826-.44951.78694-.77919 1.2993-.90951.44161-.11233.95773-.0635 1.3584.15356.38604.2092.83863 1.0158.83863 1.0158l16.773-4.9609s.0692-.76544.28348-1.0631c.27564-.38284.71456-.71017 1.1812-.77958.43867-.0653.92156.11097 1.2757.37798.32791.24725.57216.63857.66146 1.0394.10704.48049.06206 1.0412-.18899 1.4647-.21849.36852-.62213.65899-1.0394.75595-.35812.0832-.75579-.0287-1.0867-.18898-.36137-.17503-.89769-.8032-.89769-.8032l-16.867 4.8664-.04725.85045z"/>
  </g>
  <path transform="scale(.26458)" d="m142.17 534.92c-5.2173.0611-10.495 3.2715-12.076 8.4016-.65741 1.6072-.70003 3.5806-1.345 5.0539-12.369-2.2529-24.786-4.3036-37.265-5.8394-.82695-.37452-1.7533.54466-.88931 1.1912 6.3289 7.4616 12.887 14.806 17.908 23.258 1.2142 1.9812 2.5612 4.0102 3.565 6.0174-7.9504.68265-15.918 1.2635-23.886 1.7219 1.0597-4.2611 1.2031-9.2268-1.5784-12.892-2.9759-3.814-7.3738-6.2485-12.049-7.299-6.5865-1.6663-14.562.0421-18.53 5.9304-2.5382 3.6657-3.3769 8.335-2.3793 12.672.16712.93742.36008 1.8713.50089 2.8148-13.614.54705-27.67.69548-41.275 1.3924-1.0727.81736 1.0473 2.0272 1.4318 2.8064 7.54 9.5443 16.946 17.402 26.831 24.406 3.2445 2.5568 6.8527 4.7442 9.6224 7.8515.005 5.0724-2.3995 9.7693-3.8656 14.554-5.7194 16.125-11.714 32.154-17.811 48.143.25487 1.2939 2.2255 1.1379 3.0211.30432 11.156-8.0466 20.965-17.854 29.323-28.764 2.3062-2.9225 4.4953-5.9348 6.7823-8.8719 8.5181 16.118 16.853 32.343 26.096 48.064.76233.58637 2.0126.0466 2.7858-.23281.20129-14.425.03686-28.896.16553-43.338.0461-5.3058.02076-10.608.25322-15.901 6.4044 5.1187 12.995 10.263 18.586 16.188 1.9445 2.0468 2.629 5.034 1.8141 7.7371-1.4167 5.0371-4.2873 9.5876-6.5184 14.354-7.2611 14.396-14.487 28.81-21.717 43.222.07135 1.3575 1.9333 1.5262 2.819.73545 9.5784-5.6777 18.899-11.863 27.273-19.234 7.5058-6.4511 14.391-13.584 21.556-20.388 9.708 15.498 19.968 30.669 30.846 45.376.48708.88271 1.8968 2.1544 2.662.82026.28571-2.9578-.0882-6.0141-.0608-9.0058-.5296-21.066-1.2281-42.128-1.9008-63.19 1.4091-3.7127 5.6167-4.7441 8.9465-5.9982 7.2341-2.261 13.494-6.6742 19.871-10.629.55107-.46285 2.3482-1.1364 1.2575-1.9595-12.173-1.7798-23.846-5.7676-35.536-9.4702-1.0604-.52404-2.6572-.58495-3.394-1.5039-.84589-9.2203-.87601-18.555-.70583-27.819-.1247-2.2096 1.5292-4.0809 3.5839-4.67 6.5365-2.7636 13.66-3.8902 20.489-5.7856 3.8088-.97365 8.2846-2.0757 12.06-3.0498.76081-1.0922-1.7652-1.1541-2.404-1.5576-12.612-5.5428-25.62-10.112-38.756-14.238 2.2189-3.6002 4.5502-8.0972 2.8756-12.375-2.45-5.827-9.0122-8.8659-15.081-8.9084-1.2996-.0579-2.601-.11428-3.9022-.0962zm.73394 2.0968c6.4593-.0608 13.386 4.3893 14.225 11.144.33733 2.6325.14949 5.7583-2.1727 7.4854-3.8777 3.4763-9.9914 4.7399-14.641 2.1347-2.8462-1.9401-5.7025-4.435-6.7717-7.8371-1.4803-4.8848 1.1032-11.398 6.4279-12.589.95811-.23662 1.9466-.33508 2.9323-.33787zm-73.567 19.884c5.4027.0358 10.997 2.6532 13.552 7.589 2.1864 3.7232 2.8331 9.0646-.25057 12.494-3.4661 3.9925-9.3574 4.6733-14.243 3.9661-4.554-.78528-9.2653-3.9048-10.557-8.6253-.93557-4.2433.36264-8.8161 2.9086-12.283 2.0173-2.5514 5.5303-3.142 8.5897-3.1409zm78.418 13.937c3.7596.0487 6.9151 3.9444 6.3569 7.6817.24636 3.5119-3.1162 6.7953-6.6128 6.1896-2.4517-.11061-4.1427-2.1605-5.9591-3.496-5.9068 1.4211-11.801 3.3588-17.702 4.9787-15.028 4.3968-30.143 8.5178-45.066 13.26-1.0272.57352-.90824 2.2753-.53171 3.17 6.3973 3.815 13.171 8.0456 19.638 11.715 1.1053-.4234.11782-2.2638.35172-3.2037.07255-3.7028 2.7394-6.6811 5.0305-9.343 3.0438-3.2881 6.4742-6.26 10.03-8.9441-1.0635 4.9497-2.0207 9.9576-1.8383 15.048-.0111 1.618-.008 3.236-.01 4.854-3.9265.59246-8.4619.98989-12.367 1.7042-.95367 1.0647 1.7832 1.5582 2.3829 2.1677 12.852 7.8833 25.658 15.867 38.633 23.535 2.2495-.42641 4.3598-2.2062 6.7884-1.3929 3.2305.97866 5.8071 4.1422 5.4474 7.6309.26227 3.7701-3.397 7.297-7.156 6.6573-2.7405.0649-5.6244-1.6584-6.5384-4.2887-.56257-1.5831.13204-3.6148-.87933-4.9215-19.626-12.229-39.108-24.692-58.843-36.742-1.2138-.56378-2.7799-2.1175-4.0606-.82923-3.1066 2.252-8.0727 1.7388-10.154-1.6587-1.4298-2.2332-1.4906-5.1569-.93419-7.6634 1.0991-3.3478 4.7173-5.2158 8.0778-4.9477 2.3085-.14356 4.0591 1.5667 5.1958 3.3826.53442 1.1101 1.7052.85467 2.6322.44633 19.539-5.7361 39.112-11.368 58.558-17.413 1.0883-.50039 3.0358-.53959 2.97-2.1534.56818-3.0718 3.3244-5.6926 6.5601-5.4232zm-7.0508 22.877c5.9796.0355 12.212 3.2406 15.35 8.4196 2.2599 4.1002 3.0885 9.931-.32998 13.661-3.8842 4.4496-10.456 6.1321-15.933 4.1235-4.6078-1.6425-8.9824-5.095-10.341-9.9545-.77002-3.7867-.54229-7.9774 1.2277-11.501 2.0047-3.4414 6.326-4.7104 10.026-4.7484z"/>
 </g>
</svg>
