<svg width="32.033mm" height="32.034mm" version="1.1" viewBox="0 0 32.033 32.034" xmlns="http://www.w3.org/2000/svg">
 <g transform="translate(-4.7248 -201.74)">
  <g>
   <circle cx="18.341" cy="210.98" r="6.3142" fill="#fff"/>
   <path transform="scale(.26458)" d="m78.393 762.5a60.536 60.536 0 00-60.535 60.535 60.536 60.536 0 0060.535 60.537 60.536 60.536 0 0060.535-60.537 60.536 60.536 0 00-60.535-60.535zm-9.0176 13.572a21.518 21.518 0 012.1484.10742 21.518 21.518 0 012.127.32031 21.518 21.518 0 012.084.5332 21.518 21.518 0 012.0195.73633 21.518 21.518 0 011.9375.93555 21.518 21.518 0 011.834 1.125 21.518 21.518 0 011.7109 1.3008 21.518 21.518 0 011.5742 1.4668 21.518 21.518 0 011.4199 1.6152 21.518 21.518 0 011.252 1.75 21.518 21.518 0 011.0703 1.8652 21.518 21.518 0 01.87695 1.9648 21.518 21.518 0 01.67969 2.041 21.518 21.518 0 01.4707 2.0977 21.518 21.518 0 01.25977 2.1348 21.518 21.518 0 01.05273 1.5234 21.518 21.518 0 01-.10742 2.1484 21.518 21.518 0 01-.32031 2.125 21.518 21.518 0 01-.5332 2.084 21.518 21.518 0 01-.73828 2.0215 21.518 21.518 0 01-.93555 1.9375 21.518 21.518 0 01-1.123 1.832 21.518 21.518 0 01-1.3027 1.7129 21.518 21.518 0 01-1.4648 1.5742 21.518 21.518 0 01-1.6172 1.4199 21.518 21.518 0 01-1.748 1.25 21.518 21.518 0 01-1.8672 1.0703 21.518 21.518 0 01-1.9629.87891 21.518 21.518 0 01-2.041.67774 21.518 21.518 0 01-2.0977.47265 21.518 21.518 0 01-2.1367.25781 21.518 21.518 0 01-1.5215.0547 21.518 21.518 0 01-2.1484-.10743 21.518 21.518 0 01-2.127-.32227 21.518 21.518 0 01-2.084-.53125 21.518 21.518 0 01-2.0195-.73828 21.518 21.518 0 01-1.9375-.93554 21.518 21.518 0 01-1.834-1.123 21.518 21.518 0 01-1.7109-1.3027 21.518 21.518 0 01-1.5742-1.4668 21.518 21.518 0 01-1.4199-1.6152 21.518 21.518 0 01-1.252-1.75 21.518 21.518 0 01-1.0703-1.8652 21.518 21.518 0 01-.87695-1.9629 21.518 21.518 0 01-.67969-2.041 21.518 21.518 0 01-.4707-2.0996 21.518 21.518 0 01-.25977-2.1348 21.518 21.518 0 01-.05273-1.5215 21.518 21.518 0 01.10742-2.1484 21.518 21.518 0 01.32031-2.127 21.518 21.518 0 01.5332-2.084 21.518 21.518 0 01.73828-2.0215 21.518 21.518 0 01.93555-1.9355 21.518 21.518 0 011.123-1.834 21.518 21.518 0 011.3027-1.7129 21.518 21.518 0 011.4648-1.5742 21.518 21.518 0 011.6172-1.418 21.518 21.518 0 011.748-1.252 21.518 21.518 0 011.8672-1.0703 21.518 21.518 0 011.9629-.87891 21.518 21.518 0 012.041-.67773 21.518 21.518 0 012.0977-.4707 21.518 21.518 0 012.1367-.25977 21.518 21.518 0 011.5215-.0527z"/>
   <g aria-label="9">
    <path d="m19.713 212.47c.21167-.37042.37042-.65617.47625-.86784.11642-.22225.23283-.52916.34925-.93133.127-.40217.1905-.78317.1905-1.1536 0-.59267-.23283-1.0901-.68792-1.5028-.45508-.41275-1.016-.61383-1.6933-.61383-.70908 0-1.27.22225-1.6933.67733-.42333.45509-.635.97367-.635 1.5663 0 .60325.1905 1.1007.5715 1.5028.39158.39158.84667.59267 1.3864.59267.20108 0 .35983-.0106.45508-.0317l-1.7992 2.8892h1.8521zm-.889-2.3495c-.24342.30691-.64558.30691-.89958 0-.24342-.30692-.24342-.79375 0-1.1007.254-.30692.65617-.30692.89958 0 .24342.30692.24342.79375 0 1.1007z" stroke-width=".26458"/>
   </g>
   <g fill="#fff" stroke-width=".26458" aria-label="whys">
    <path d="m17.538 222.02-1.4387 4.6426h-1.5792l-.94671-3.1295-.93018 3.1295h-1.5999l-1.4263-4.6426h1.5627l.79375 3.1998.99219-3.1998h1.3188l.94258 3.1998.78135-3.1998z"/>
    <path d="m22.807 226.66h-1.4966v-2.3027q0-.28112-.02894-.5581-.02894-.28112-.09922-.41341-.08268-.15296-.24391-.22324-.1571-.0703-.44235-.0703-.20257 0-.41341.0661-.2067.0662-.45062.21084v3.2908h-1.4883v-6.4327h1.4883v2.3027q.39688-.31006.76068-.47543.36794-.16536.81442-.16536.75241 0 1.1741.43821.42581.43822.42581 1.3105z"/>
    <path d="m25.985 225.02 1.0583-3.0014h1.5296l-2.5797 6.3459h-1.6123l.73587-1.7363-1.8066-4.6095h1.5627z"/>
    <path d="m33.139 225.19q0 .71934-.64492 1.1617-.64492.43821-1.7653.43821-.62012 0-1.1245-.11575-.50436-.11576-.81029-.25632v-1.2237h.13643q.11162.0785.25632.17363.14883.0909.41755.19844.23151.0951.52503.16536.29352.0661.62839.0661.43822 0 .64906-.0951.21084-.0992.21084-.28939 0-.16949-.12402-.24391-.12402-.0786-.47129-.14883-.16536-.0372-.45062-.0786-.28112-.0455-.51263-.10748-.63252-.16537-.93844-.51263-.30592-.3514-.30592-.8723 0-.66973.63252-1.1121.63665-.44648 1.7363-.44648.5209 0 .99632.10749.47956.10335.74828.22324v1.1741h-.12816q-.33073-.22738-.75654-.36794-.42168-.14469-.85576-.14469-.35967 0-.60772.0992-.24391.0992-.24391.28112 0 .16537.11162.25219.11162.0868.52503.17363.22738.0455.48782.0909.26458.0413.52917.10749.58704.15296.86816.48369.28112.32659.28112.81855z"/>
   </g>
  </g>
 </g>
</svg>
