<svg width="45.39mm" height="41.599mm" version="1.1" viewBox="0 0 45.39 41.599" xmlns="http://www.w3.org/2000/svg">
 <g transform="translate(-126 -92.329)">
  <g>
   <g stroke="#000" stroke-width=".26458px">
    <path d="m127.54 127.19h3.9688s.60262 1.6591.7087 2.5277c.0945.77418.19416 1.6052-.0709 2.3387-.21734.60147-.60274 1.2391-1.1812 1.5119-.54148.25535-1.2572.21499-1.7954-.0472-.63358-.30865-1.0582-.98696-1.3465-1.63-.38141-.85055-.38813-1.8325-.42522-2.764-.0258-.64694.14178-1.9372.14178-1.9372z"/>
    <path d="m127.45 126.29h3.827s.0626-1.2637.23623-1.8663c.2741-.95126.74949-1.9109 1.252-2.6931.62263-.96907.83936-1.3934 1.0158-2.1734.22415-.9908.17298-2.0426.0236-3.0474-.13586-.91396-.40149-1.6366-.82683-2.6458-.29665-.70391-.93343-1.6237-1.3938-1.819-.61045-.25904-1.3975-.16704-1.9844.14169-.92731.4878-1.4479 1.5431-1.9608 2.4568-.61936 1.1035-1.0648 2.3236-1.2993 3.5672-.24954 1.3236-.27342 2.7046-.0945 4.0396.18665 1.3927 1.2048 4.0397 1.2048 4.0397z"/>
    <path d="m142.23 127.45-3.9575-.29906s-.72592 1.609-.89715 2.4671c-.15257.76486-.31456 1.586-.10577 2.3374.1714.61614.50766 1.281 1.0639 1.5966.5207.29542 1.2374.30911 1.7938.0882.65504-.26004 1.1295-.90443 1.4656-1.5239.44441-.81939.52511-1.7981.63228-2.724.0744-.64316.005-1.9424.005-1.9424z"/>
    <path d="m142.39 126.56-3.8161-.28837s.0328-1.2648-.0949-1.8788c-.20165-.96921-.60337-1.9619-1.0456-2.7798-.54783-1.0132-.73197-1.4527-.84915-2.2437-.14885-1.0049-.0186-2.0499.20608-3.0406.20434-.90112.52367-1.6016 1.0238-2.576.34884-.67957 1.0531-1.5487 1.5269-1.7088.62824-.21231 1.4061-.0612 1.9681.29081.88792.55628 1.3275 1.6479 1.77 2.5976.53445 1.1471.88673 2.3972 1.0268 3.6549.1491 1.3386.0688 2.7176-.21014 4.0353-.29106 1.3747-1.5058 3.9374-1.5058 3.9374z"/>
   </g>
   <g fill="#000008" stroke="#000" stroke-width=".26458px">
    <path d="m150.9 101.01 2.6241 2.9774s-.84624 1.5491-1.4277 2.203c-.51831.58278-1.0759 1.207-1.8014 1.4932-.59493.23464-1.3281.36713-1.9152.11353-.5496-.23738-.99255-.801-1.1517-1.3781-.18736-.6794.0408-1.4464.33253-2.088.3859-.84852 1.1182-1.5028 1.7924-2.1465.46829-.44711 1.547-1.1745 1.547-1.1745z"/>
    <path d="m151.51 100.35 2.5304 2.8711s.98946-.78862 1.5563-1.0568c.89487-.42334 1.9291-.7012 2.8482-.84136 1.1387-.17365 1.6003-.29162 2.3021-.67496.89152-.48695 1.6468-1.2208 2.3018-1.9973.59583-.70623.96229-1.3833 1.4382-2.3697.33193-.68797.6009-1.7738.44306-2.2484-.20929-.62924-.7987-1.1588-1.4184-1.395-.97909-.37314-2.115-.06593-3.1396.15349-1.2374.26501-2.4472.7375-3.5352 1.3839-1.158.68795-2.2098 1.5832-3.0931 2.6001-.92141 1.0609-2.234 3.5749-2.234 3.5749z"/>
    <path d="m160.52 112.24-2.4006-3.1604s-1.6857.52368-2.4416.9646c-.67365.39302-1.3957.81633-1.8196 1.4709-.34751.53689-.62217 1.2295-.48951 1.8551.12422.58565.58924 1.1312 1.1236 1.4011.62902.31783 1.426.24566 2.1125.0863.90801-.21075 1.6941-.79937 2.4582-1.3332.53073-.37083 1.4571-1.2843 1.4571-1.2843z"/>
    <path d="m161.29 111.77-2.3148-3.0475s.96846-.81425 1.3433-1.317c.59172-.79366 1.0683-1.7527 1.3872-2.626.39508-1.082.6019-1.5112 1.1163-2.1235.65342-.7778 1.522-1.3733 2.4125-1.8621.80996-.44463 1.5461-.67017 2.607-.94195.73998-.18956 1.8576-.2388 2.2916.0096.57554.32944.97827 1.0118 1.0875 1.6659.17247 1.0335-.35302 2.0864-.77044 3.0475-.50414 1.1607-1.2062 2.2534-2.0547 3.1923-.90308.99931-1.9884 1.8537-3.1597 2.5187-1.222.69377-3.9456 1.484-3.9456 1.484z"/>
   </g>
   <g>
    <path d="m143.72 130.25s.77258-.4632 1.2027-.46773c.43859-.005 1.2361.45102 1.2361.45102s-.79557.46707-1.2361.46772c-.42816.00063-1.2027-.45101-1.2027-.45101z"/>
    <path d="m147.39 130.23s.71412-.54905 1.1409-.60306c.43511-.0555 1.2798.30573 1.2798.30573s-.73651.55555-1.1741.60691c-.42524.0499-1.2466-.30958-1.2466-.30958z"/>
    <path d="m151.2 129.47s.49821-.75049.88457-.9396c.39379-.19317 1.3099-.12456 1.3099-.12456s-.51731.76387-.91473.95396c-.38626.18474-1.2798.1102-1.2798.1102z"/>
    <path d="m154.8 127.44s.23104-.87066.53628-1.1737c.31098-.30932 1.2007-.53831 1.2007-.53831s-.24483.88947-.56025 1.197c-.30655.29892-1.1767.51502-1.1767.51502z"/>
    <path d="m157.76 124.49s.0525-.89926.29111-1.2572c.24296-.36518 1.069-.76721 1.069-.76721s-.0623.92044-.30994 1.2848c-.24069.35411-1.0502.73961-1.0502.73961z"/>
    <path d="m159.87 121.32s-.0542-.89916.14042-1.2828c.19806-.39135.9708-.88823.9708-.88823s.047.92134-.15586 1.3124c-.19713.38008-.95536.85859-.95536.85859z"/>
    <path d="m144.09 97.5s.69213-.57654 1.1164-.64718c.4326-.07241 1.2908.25549 1.2908.25549s-.71424.5839-1.1494.65231c-.42297.06649-1.2578-.26062-1.2578-.26062z"/>
    <path d="m140.43 98.828s.56966-.6978.97275-.84796c.41089-.15347 1.3158.005 1.3158.005s-.58998.70924-1.0042.85928c-.40256.14582-1.2844-.01631-1.2844-.01631z"/>
    <path d="m136.83 100.67s.47001-.76845.84908-.97177c.38635-.20766 1.3044-.17309 1.3044-.17309s-.48858.78254-.87869.98725c-.37913.19895-1.2748.15761-1.2748.15761z"/>
    <path d="m133.98 103.38s.22089-.87329.52257-1.1799c.30736-.31291 1.1943-.55224 1.1943-.55224s-.23446.89224-.54626 1.2035c-.30306.30246-1.1706.52868-1.1706.52868z"/>
    <path d="m132.18 106.99s-.11027-.89402.0599-1.2891c.17322-.40297.91337-.94719.91337-.94719s.10449.91661-.0735 1.3196c-.17298.39166-.89982.91665-.89982.91665z"/>
    <path d="m131.14 110.57s-.19588-.87923-.0645-1.2888c.13359-.41778.81789-1.0308.81789-1.0308s.19229.90228.054 1.3206c-.13444.4065-.80733.99906-.80733.99906z"/>
    <path d="m146.65 99.116 5.0756-2.6357-5.549-1.3362 1.715 1.8051z"/>
    <path d="m162.77 120.04.12311-5.7178-3.835 4.2272 2.4067-.63846z"/>
   </g>
   <path d="m129.99 120.59h.70871v-5.0436l-1.8544 1.2166v.79139l1.1221-.63784z" fill="#fffff8"/>
   <path d="m140.09 119.79 1.7524-.008v.82682h-3.39l2.197-3.1774c.0923-.13342.20193-.40943.18309-.62603-.0135-.15525-.0937-.31201-.20672-.41931-.13365-.12691-.3249-.19672-.50791-.21852-.16261-.0194-.33517.015-.48428.0827-.22423.10184-.57286.46657-.57286.46657l-.49019-.50791s.5008-.49671.81573-.63813c.24987-.1122.53637-.17941.80839-.14735.35891.0423.73576.18238.99218.43704.23883.2372.37939.58643.41341.92131.0338.3331-.069.74569-.21852.98038z" fill="#fffff8"/>
   <g stroke="#000" stroke-width=".1">
    <path d="m159.59 94.707-.0118.57287s.58006-.04749.80321.41932c.11239.23512.11214.53291-.0119.75005-.11787.20641-.37156.35098-.60831.37207-.31353.02793-.87998-.34254-.87998-.34254l-.36616.32482s.24362.58431.17718.87407c-.0603.26289-.23809.54787-.49019.64374-.25875.0984-.60514.02105-.81502-.15946-.23935-.20585-.31891-.89179-.31891-.89179l-.66146-1.2e-5s.13477.99023.45238 1.3376c.30114.32935.77959.57003 1.2249.54047.44988-.02987.89821-.33385 1.1544-.70483.18963-.27454.18535-.98366.18535-.98366s.73222.02868 1.0344-.14417c.31074-.17774.58464-.4933.66706-.84167.0961-.4061.018-.89574-.25555-1.2256-.4298-.51835-1.2797-.54131-1.2797-.54131z" fill="#fff"/>
    <path d="m164.63 107.15 1.0279-.89507.37105.36473.48572-.44742-.36068-.38489 2.4687-2.2388-5.4106.0626 1.819 1.9734-1.0213.89769z" fill="#fff"/>
    <path d="m164.72 104.27 1.8291-.0331-1.019.90204z"/>
   </g>
  </g>
 </g>
</svg>
