<svg width="37.382mm" height="25.128mm" version="1.1" viewBox="0 0 37.382 25.128" xmlns="http://www.w3.org/2000/svg">
 <g transform="translate(-135.19 -144.49)">
  <rect x="135.64" y="144.94" width="36.482" height="24.228" fill="#fff" stroke="#000" stroke-linecap="round" stroke-width=".9"/>
  <g>
   <path d="m141.98 161.21h2.282v1.7694h-5.4405l3.638-5.7712c.18196-.28866.40407-.6851.34726-1.3394-.0353-.40652-.56117-.70517-.95911-.71106-.37612-.006-.73126.3231-.92604.64491-.20427.33749-.14883 1.1741-.14883 1.1741h-1.6371s-.0466-.63186 0-.94258c.0753-.50177.12395-1.0635.44648-1.4552.52043-.63202 1.3478-1.1388 2.1663-1.1576.92187-.0211 2.0119.40641 2.497 1.1906.48432.783.37381 2.0285-.0496 2.7616z"/>
   <path d="m146.1 161.11v1.6206s1.2803.34051 1.9678.33073c.78899-.0112 1.5835-.34824 2.1001-.90951.55958-.60789.80624-1.522.79375-2.3482-.0115-.75861-.26611-1.5958-.79375-2.1332-.79089-.80544-2.0505-.76067-2.0505-.76067v-1.7363h2.6458v-1.4387h-4.1176v4.5144h1.3064c.75095 0 1.3891.4584 1.4056 1.4387.0115.68263-.0834 1.1339-.42995 1.5379-.25216.29398-.67152.46003-1.0583.47956-.6215.0314-1.7694-.59531-1.7694-.59531z"/>
   <path d="m155.38 152.93h1.1245l-2.8773 12.799h-1.1906z"/>
   <path d="m158.37 153.64h2.8935v9.2439h-1.8356v-7.607h-1.058z"/>
   <path d="m165.9 153.55c.78222.003 1.5866.52805 2.0346 1.1693.61464.87984.56011 2.0326.54591 3.1732-.014 1.1213.2094 2.5518-.40559 3.5854-.45226.76012-1.2905 1.5104-2.1749 1.5201-.87125.01-1.7249-.70384-2.1749-1.4499-.63068-1.0457-.37535-2.5647-.37535-3.6442 0-.98237-.0679-2.338.56244-3.2313.43875-.62173 1.2269-1.1254 1.9878-1.1225z"/>
  </g>
  <path d="m165.9 155.16c.46627-.004.85455.24876.86528 1.0991.0107.85038.04 2.7557.0468 3.8119.007 1.0562-.32313 1.2956-.8419 1.3096-.51907.0141-.92133-.32264-.91206-1.2628.009-.94021.002-2.9976.0234-3.8821.0211-.88449.36795-1.072.81852-1.0758z" fill="#fff"/>
  <g fill="none" stroke="#000" stroke-width=".365">
   <path d="m135.64 156.73h36.576"/>
   <path d="m135.59 159.02h36.576"/>
   <path d="m135.59 161.5h36.529"/>
   <path d="m135.55 163.97h36.623"/>
   <path d="m135.59 166.41h36.576"/>
   <path d="m135.64 154.3h36.529"/>
   <path d="m135.59 151.86h36.576"/>
  </g>
 </g>
</svg>
