<svg width="24.91mm" height="24.197mm" version="1.1" viewBox="0 0 24.91 24.197" xmlns="http://www.w3.org/2000/svg">
 <g transform="translate(-197.01 -202.75)">
  <path d="m202.87 225.52s2.8003 1.4377 7.0776 1.4221c4.0078-.0146 7.0131-1.5254 7.0131-1.5254l-1.308-1.3189s3.7338-2.4628 4.8121-4.3326c1.1458-1.9868 1.5954-4.4445 1.4238-6.7315-.20877-2.782-2.9346-7.8383-2.9346-7.8383s.68438-.25563.89899-.57192.1442-.66776.0496-.98133c-.0911-.30187-.56224-.76068-.56224-.76068s-4.1029 1.8736-9.7548 1.9097c-4.346.0278-9.7388-2.0465-9.7388-2.0465s-.46652.55459-.50544.89499c-.0302.26433.0138.51073.22548.76566.21164.25494 1.0059.49408 1.0059.49408s-3.4092 4.2998-3.5485 8.3065c-.089 2.5614.40665 5.199 1.986 7.0986 1.2832 1.5434 5.0339 3.7767 5.0339 3.7767z"/>
  <path d="m201.95 205.3s4.2395 1.5162 7.963 1.4733c3.7038-.0427 7.5069-1.0991 7.5069-1.0991s2.2808 3.9479 2.8297 6.057c.56652 2.1765.11871 4.6776-.88867 6.6884-.86913 1.7349-2.4706 3.1195-4.1627 4.0692-1.7114.96051-3.7437 1.4418-5.7062 1.4499-1.7016.007-3.4376-.45174-4.9578-1.2161-1.9562-.98347-3.8014-2.3215-5.0046-4.303-1.1187-1.8423-1.3256-4.5024-.93544-6.7352.41379-2.3684 3.3559-6.3844 3.3559-6.3844z" fill="#fff"/>
  <path d="m202.57 214.01c.0518-.88105 2.6981-1.5688 4.0845-1.5379 1.3864.0309 3.2706 1.5357 3.5553 1.5544.28479.0187.54639-.65958.85162-.92604s1.222-.60367 1.3146-.52917-.23166.9582-.48783 1.2898-.91777.69453-.91777.69453.63484.66209.77722 1.0501.28515 1.0782.14881 1.1658c-.13634.0876-.82869-.25493-1.0999-.59631s-.31636-1.0859-.63641-1.0904c-.32005-.005-2.1558.85279-3.5388.81028-1.383-.0425-4.1032-1.0041-4.0514-1.8852z"/>
 </g>
</svg>
