<svg width="24.372mm" height="30.813mm" version="1.1" viewBox="0 0 24.372 30.813" xmlns="http://www.w3.org/2000/svg">
 <g transform="translate(-79.563 -9.8128)">
  <g>
   <g transform="scale(1.068 .93629)" aria-label="w">
    <path d="m82.849 43.391 3.07-8.862 3.0384 8.862h3.7663l4.5892-15.255h-4.6209l-2.1838 8.9569-2.6586-8.9569h-3.8929l-2.6586 8.9569-2.1838-8.9569h-4.6209l4.5892 15.255z" stroke-width=".28259"/>
   </g>
   <g transform="scale(1.0702 .93437)" aria-label="w">
    <path d="m83.687 27.676 2.0509-5.9201 2.0298 5.9201h2.516l3.0658-10.191h-3.0869l-1.4589 5.9835-1.776-5.9835h-2.6006l-1.776 5.9835-1.4589-5.9835h-3.0869l3.0658 10.191z" stroke-width=".28317"/>
   </g>
   <g transform="scale(1.0727 .93226)" aria-label="w">
    <path d="m84.182 17.274 1.3581-3.9204 1.3441 3.9204h1.6662l2.0302-6.7486h-2.0442l-.96609 3.9624-1.1761-3.9624h-1.7222l-1.1761 3.9624-.96609-3.9624h-2.0442l2.0302 6.7486z" stroke-width=".28381"/>
   </g>
  </g>
 </g>
</svg>
