<svg width="74.695mm" height="56.407mm" version="1.1" viewBox="0 0 74.695 56.407" xmlns="http://www.w3.org/2000/svg">
 <g transform="translate(-96.117 -179.56)">
  <g>
   <path transform="matrix(.26458 0 0 .26458 96.117 179.56)" d="m160.12.0019531c-2.0437-.026571-4.0984.30948-5.9297 1.0977-2.8549 1.2287-5.6628 3.4399-6.873 6.3027-1.3095 3.0977.29101 10.084.29101 10.084l-26.34 5.127 18.74 14.672-27.578 5.834s-.64486-4.5896-2.1133-6.209c-2.0014-2.2071-5.1853-3.3117-8.1406-3.6895-3.5693-.4563-7.4734.12469-10.637 1.8398-2.395 1.2986-4.5535 3.4587-5.5605 5.9902-.90845 2.2837-.06445 7.373-.06445 7.373l-16.971-.53125s-2.4307-5.9952-2.918-11.844c-.31484-3.7774-.44037-6.7289 2.6523-10.873 8.4975-11.386 14.496-24.307 14.496-24.307l-31.201 12.021s-1.7333-6.2455-4.0664-8.2207c-2.0203-1.7104-4.9545-2.3086-7.6016-2.2969-3.8579.018898-7.9783 1.1116-11.049 3.4473-2.1205 1.6129-3.882 4.0905-4.3301 6.7168-.46866 2.7473 1.9434 8.1328 1.9434 8.1328l-26.869 9.1914s10.046 5.5382 15.203 8.043c4.6391 2.2532 10.199 2.9521 14.143 6.2754 1.1373.95834 2.0544 2.2863 2.4746 3.7129.71109 2.4143-.11523 7.5488-.11523 7.5488s-8.349 4.4271-11.346 7.9375c-3.2503 3.8075-5.9326 8.5386-6.5703 13.504-.99512 7.7484 1.0589 16.017 4.5957 22.982 5.249 10.338 14.075 18.898 23.512 25.633 8.9998 6.4232 19.677 10.578 30.404 13.258 15.311 3.8255 31.43 4.3347 47.199 3.7129 17.289-.68171 34.168-5.4829 51.266-8.1328 10.895-1.6886 21.705-4.2093 32.705-4.9492 3.7044-.24907 11.137.17578 11.137.17578l-13.082 13.26s-9.3591-1.6392-19.977 2.1211c-6.2332 2.2076-11.788 5.8515-14.672 11.312-3.8041 7.2025-3.6843 16.574-1.4141 24.396 2.2242 7.664 7.9445 14.207 13.965 19.445 5.8262 5.0693 13.029 8.8511 20.506 10.783 10.557 2.728 22.076 3.14 32.705.70703 9.6076-2.1992 19.008-6.8484 26.34-13.436 5.1304-4.6096 9.3451-10.714 11.312-17.324 2.1346-7.1726 2.5197-15.405 0-22.451-2.5658-7.1754-14.496-17.676-14.496-17.676l3.3594-8.4863s8.182-.89813 12.197-1.7676c3.7181-.80508 10.961-3.1816 10.961-3.1816s-7.3813-3.8208-10.783-6.1875c-3.0223-2.1026-5.4513-4.986-8.4863-7.0703-2.8271-1.9415-8.9844-5.0137-8.9844-5.0137s3.9439-4.1519 2.6094-9.0352c-1.0451-3.8242-3.642-5.682-6.4297-7.375-2.3493-1.4267-5.2683-2.0744-8.0137-1.9414-2.6354.12775-5.4255.93978-7.4766 2.5996-2.3813 1.9272-4.7617 7.8594-4.7617 7.8594l-17.855-4.5957-5.4785 2.4746 8.8379 15.203 3.7129 11.844s-7.0716-.70092-10.607-.52929c-18.087.87791-35.813 5.3964-53.74 7.9551-12.424 1.7734-24.752 4.8459-37.299 5.125-14.731.32776-29.843-.0413-44.018-4.0644-9.5574-2.7126-18.795-7.234-26.693-13.26-8.7267-6.6573-16.935-14.791-21.92-24.57-3.5065-6.8789-6.1984-15.017-4.9297-22.633 1.4859-8.9195 11.451-15.105 11.451-15.105l-4.4004 35.439s3.677.69427 6.541-1.2383c2.864-1.9325 4.732-6.5153 7.6016-11.844 2.8696-5.3285 9.0156-20.328 9.0156-20.328s15.625 17.927 18.215 19.879c2.5901 1.9519 6.5332 1.6875 6.5332 1.6875s-2.8373 3.7276-1.0293 9.8652c1.2934 4.3908 8.2773 11.348 8.2773 11.348l-5.127 20.506s4.1024-.0908 5.8438-1.0293c2.693-1.4517 4.3706-4.3022 6.3008-6.6758 1.5145-1.8624 4.1191-5.9062 4.1191-5.9062s11.174 3.9461 16.971 5.0625c4.0672.78338 12.375 1.125 12.375 1.125s2.3679 1.503 3.4024 1.3691c1.0344-.1338 2.0762-1.5469 2.0762-1.5469s14.31.16219 21.391-.70703c11.798-1.4482 23.852-3.0097 34.867-7.4766 9.5084-3.8556 13.27-5.0668 16.045-10.908 2.3349-4.9152.89149-11.335-1.4141-16.264-2.1643-4.627-10.867-10.805-10.867-10.805s-4.1174-28.362-4.4805-32.26c-.36321-3.8979-.20926-6.1677 3.1621-8.3359 3.3712-2.1682 16.25-10.648 16.25-10.648s-6.0204.10582-11.117-.5c-5.0968-.60567-19.111-4.2715-19.111-4.2715s.41204-7.0744-1.4668-9.7852c-1.6694-2.4086-4.8226-3.6386-7.6836-4.2734-1.1678-.25916-2.391-.40593-3.6172-.42187zm-17.594 41.658-1.9883 8.752-4.2422-1.3262zm-9.8008 11.951 6.6875.875-6.375 14.938-9.0625-.875s1.3757-5.1956 2.8789-7.7676c1.5032-2.572 5.8711-7.1699 5.8711-7.1699zm25.568 6.4258c1.1716-.0092 6.1283.3812 10.432 7.1992 4.9181 7.792 14.887 21.451 14.887 21.451l6.3984-.76758-.41016-7.6211s5.0418 4.9305 5.8125 8.1875c.75719 3.1999.31221 7.0062-1.5 9.75-2.3927 3.6228-7.0302 5.2657-11.062 6.875-10.728 4.2815-22.479 5.5415-33.938 7-6.6422.84548-20.062 1-20.062 1l-.75-11.312s8.2042 1.7692 12.375 1.875c5.6513.14324 11.675.53048 16.875-1.6875 4.3087-1.8379 9.5176-4.5891 10.688-9.125 1.2283-4.7623-1.8697-10.182-5.1875-13.812-3.9161-4.2852-15.688-7.5625-15.688-7.5625l10.875-11.438s.0885-.01041.25586-.01172zm-84.313 6.7695 12.287 6.9844s-2.5827.92952-5.5371 2.75c-1.1948.73625-3.582 2.9648-3.582 2.9648zm49.494 5.6797 8.4102.45117-4.5977 10.611s2.361.81934 5.25-.25 10.438-8.125 10.438-8.125 10.412 3.5639 14.188 7.3125c2.3872 2.3703 4.9974 5.5877 4.6875 8.9375-.28823 3.1168-3.0748 5.8577-5.8125 7.375-4.3626 2.4178-9.9031 2.0228-14.875 1.625-4.9323-.39458-14.312-3.9375-14.312-3.9375zm-35.264 4.3965-4.3301 19.889s-6.3497-5.0276-4.5176-12.506c1.2955-5.2882 8.8477-7.3828 8.8477-7.3828zm16.176 16.088 14.938 20.064s-9.1441-1.4232-12.992-2.4746c-3.8481-1.0515-10.076-3.625-10.076-3.625zm124.01 50.646 7.9551 41.719 6.1875-1.502 11.58-37.123s8.1003 8.4243 9.8984 13.789c1.9389 5.7843 1.8204 12.352.44141 18.295-1.4417 6.213-4.6027 12.202-8.8379 16.971-3.5759 4.0268-8.4376 6.8872-13.346 9.1035-5.5423 2.5026-11.609 4.1228-17.678 4.5078-7.9105.50185-16.116-.30425-23.6-2.916-6.4549-2.2526-12.599-5.9305-17.502-10.695-4.8407-4.7044-9.0877-10.512-11.049-16.971-2.0631-6.7948-3.1944-14.832-.26562-21.301 2.3356-5.1587 7.4578-9.5056 12.906-11.049 7.715-2.1852 12.551-.17773 12.551-.17773l-11.668 11.668s8.5604-1.331 12.729-2.4746c3.7116-1.0184 10.871-3.8887 10.871-3.8887s9.4653 9.2259 12.375 15.025c2.4899 4.9627 5.2627 10.774 3.9766 16.176-.75503 3.171-3.5883 5.7137-6.3633 7.4238-2.799 1.7249-6.2885 2.3295-9.5762 2.3672-2.9481.034-6.1004-.41601-8.6328-1.9258-3.0636-1.8265-5.8044-4.7233-7.0156-8.0781-1.5271-4.2298-2.0457-9.6508.29883-13.488 1.56-2.5535 4.959-3.6928 7.8945-4.2734 2.839-.5616 6.4372-.5863 8.6348.91406 2.3104 1.5774 3.5495 3.7906 3.9219 5.8457.43756 2.4148.78397 4.182.29883 6.5723-.46515 2.2927 4.5086 1.8368 4.5293-.39648.0302-3.279.41417-6.5637-.88868-9.4453-1.2163-2.6901-3.6039-4.8276-6.0723-6.4473-1.3216-.86718-2.8919-1.4175-4.4609-1.6094-2.4369-.2982-4.9312.21573-7.3262.75586-2.0948.47225-3.0308.77754-6.0723 2.1523-2.648 1.197-5.4198 4.285-6.4102 7.3926-1.5951 5.0055-.76667 10.963 1.5312 15.688 1.6043 3.2981 4.6738 5.9631 7.9551 7.6016 3.7075 1.8513 8.141 2.1446 12.266 2.0234 7.6191-.22374 14.004-2.655 18.141-7.7695 3.172-3.9222 3.4851-9.8375 2.916-14.85-.54606-4.8093-3.2477-9.2234-5.9219-13.258-2.6489-3.9963-9.8106-10.518-9.8106-10.518z"/>
   <g fill="#fff">
    <path d="m104.68 184.09c-.25325-.35377-.44097-.80355-.4141-1.2378.0309-.49926.26562-1.031.64796-1.3536.43802-.36952 1.0826-.51902 1.6536-.47056.38693.0328.78573.21928 1.0507.50316.41578.44544.69356 1.0901.67419 1.6992-.0166.52145-.26573 1.0836-.66851 1.4152-.44123.36325-1.1021.53534-1.6621.42095-.52626-.1075-.96909-.53979-1.2817-.97654z"/>
    <path d="m121.02 189.26c.47101-.30544 1.135-.30151 1.677-.15519.4839.13065.94672.45582 1.2241.87331.30568.46006.46904 1.0741.36449 1.6165-.10292.5339-.44628 1.0852-.92458 1.3439-.535.28928-1.2679.28824-1.8241.0423-.50135-.22169-.85413-.74149-1.0781-1.2418-.1658-.37036-.23177-.8093-.15402-1.2076.0932-.47724.3073-1.0068.71528-1.2714z"/>
    <path d="m136.57 182.94c-.13072-.38579-.10331-.84101.0428-1.2213.15542-.40465.44802-.80303.83622-.99592.4777-.23735 1.0926-.24954 1.5983-.0799.47242.1585.91296.51951 1.1459.96001.23994.4537.29493 1.0389.15288 1.5321-.14319.49713-.48937.99418-.95199 1.2258-.48633.24346-1.1375.25688-1.6313.029-.56823-.26219-.99188-.85716-1.1927-1.4499z"/>
    <path d="m159.39 204.57c.5163-.26396 1.2084-.20834 1.7394.0245.56055.2458 1.0172.77237 1.2628 1.333.23201.52958.30367 1.1834.11693 1.7306-.14804.43377-.47757.88304-.91205 1.029-.52751.17721-1.1484-.0611-1.637-.32741-.51863-.28264-.98136-.73782-1.2338-1.2718-.19391-.4102-.26536-.91279-.15343-1.3525.11704-.45977.39467-.94942.8171-1.1654z"/>
   </g>
  </g>
 </g>
</svg>
