<svg width="59.142mm" height="44.46mm" version="1.1" viewBox="0 0 59.142 44.46" xmlns="http://www.w3.org/2000/svg">
 <g transform="translate(-58.898 -55.088)">
  <path d="m70.893 95.817.46772-11.225s-6.4658-2.0406-8.6863-4.4099c-2.0878-2.2278-3.3831-5.3741-3.6081-8.419-.2258-3.0548.61998-6.3512 2.3386-8.8867 1.8495-2.7286 4.9202-4.5843 7.9513-5.8799 3.1971-1.3666 6.8015-1.7652 10.278-1.7764 2.6295-.0085 5.2805.4823 7.7819 1.2932 1.6738.54256 4.7245 2.3541 4.7245 2.3541s8.3309-.3121 12.495-.20045c1.9194.05147 3.8638.02298 5.7463.4009 1.4294.28696 2.9588.55231 4.1427 1.4032.95498.68632 1.6635 1.7304 2.1382 2.8063.70354 1.5948.76812 3.4099.93544 5.1449.34423 3.5696.41981 7.1829.13364 10.758-.12448 1.5549-.40998 3.1005-.80181 4.6104-.25479.98179-.3028 2.1386-1.0023 2.8731-.69591.73084-1.7977 1.104-2.8063 1.1359-2.6596.08401-8.0181.20045-8.0181.20045l.23387 11.225s-2.8898-2.8456-4.2274-4.3674c-1.7983-2.046-5.0936-6.3902-5.0936-6.3902s-5.46-.03637-8.7207-.07087c-.92425-.0098-2.1944-.04671-3.0709-.61352-.98258-.63534-2.0396-2.8569-2.0396-2.8569l-1.8041-.06682s-3.7779 5.2356-5.9467 7.6172c-1.0927 1.1998-3.5413 3.3409-3.5413 3.3409z" stroke="#000" stroke-width=".26458px"/>
  <g fill="#fff" stroke="#000" stroke-width=".26458px">
   <path d="m72.965 91.073.28684-8.01s-5.5538-.87537-9.0399-4.2176c-1.8642-1.7873-2.9389-4.508-3.1404-7.0826-.20866-2.6661.58286-5.5291 2.0713-7.7508 1.5744-2.35 4.1638-3.9957 6.7486-5.1449 2.9817-1.3257 6.3591-1.8612 9.6217-1.8041 6.033.10572 9.5002 2.1382 9.5002 2.1382s-3.0456.32298-4.4221.93544c-.83034.36944-1.6223.90617-2.205 1.6036-.52299.626-.91732 1.4012-1.0643 2.2036-.57762 3.1526-.45693 10.172-.07157 15.236.09753 1.2816.60136 3.8086.60136 3.8086l-2.5391.13364s-2.1476 3.1346-3.3409 4.6104c-.94201 1.165-3.0068 3.3409-3.0068 3.3409z"/>
   <path d="m83.722 82.521s3.8471-.91134 5.5458-1.8709c1.4998-.84717 2.886-1.9803 3.9422-3.3409 1.0934-1.4085 2.0368-3.0535 2.3386-4.8109.42976-2.5025.05968-5.2002-.8538-7.5694-.59935-1.5544-2.919-4.0569-2.919-4.0569s-4.3793.1706-6.3166 1.0691c-.84597.39235-1.6735.99555-2.1382 1.8041-.45065.78417-.39896 1.7709-.46772 2.6727-.32179 4.2205-.14629 8.4828.26727 12.695.1127 1.1479.60136 3.4077.60136 3.4077z"/>
   <path d="m84.123 84.525s.4291 1.0312.88009 1.2925c1.5657.90711 3.7797.68257 5.7308.66076 2.245-.02509 6.3183-.01552 6.3183-.01552l6.2768 8.3424s-.17025-7.5603-.0719-8.1183c.0773-.43867.29248-.53763.83285-.546 3.0431-.04717 3.8636.01753 5.7935-.05535 1.3511-.05102 3.3855.0317 4.0475-.26727.93857-.42386 1.1135-1.8628 1.3958-2.8968.55922-2.0484.48713-4.2248.53454-6.3476.0632-2.8301.0179-5.677-.33409-8.4858-.17272-1.3784-.30652-2.8055-.86862-4.0759-.35516-.80265-.82647-1.6226-1.5368-2.1382-.83229-.60406-1.9276-.75446-2.94-.93544-2.8752-.51402-5.8328-.34772-8.7531-.4009-2.3829-.0434-7.1495.06682-7.1495.06682s2.3366 3.6268 2.8731 5.6795c.5243 2.0059.64865 4.1761.26727 6.214-.39812 2.1273-1.3247 4.2025-2.6059 5.9467-1.2242 1.6667-2.8818 3.0496-4.6772 4.0759-1.8344 1.0486-6.0136 2.0045-6.0136 2.0045z"/>
  </g>
  <g fill="none" stroke="#000" stroke-linecap="round" stroke-width="1.065">
   <path d="m98.288 78.579s2.7662.17975 4.1427.06682c1.7373-.14254 3.4062-.81167 5.1449-.93544 1.1783-.08388 3.5413.13363 3.5413.13363"/>
   <path d="m99.959 73.968s1.5628.22196 2.3386.13364c1.1065-.12597 2.1048-.77796 3.2072-.93544.7717-.11024 2.3386 0 2.3386 0"/>
   <path d="m99.892 69.358s1.9176.13566 2.8731.06682c1.8699-.13472 3.674-.83088 5.5458-.93544.8018-.04479 2.4054.13363 2.4054.13363"/>
   <path d="m67.085 66.819s1.83.15103 2.7395.06682c1.4963-.13853 2.9155-.77868 4.4099-.93544 1.0189-.10688 3.0736 0 3.0736 0"/>
   <path d="m67.085 71.362s2.2309.0896 3.3409 0c1.7993-.14524 3.5447-.74175 5.3454-.86863 1.0889-.07672 3.2741.06682 3.2741.06682"/>
   <path d="m67.151 75.906s1.647.25167 2.4722.20045c1.7482-.10851 3.3983-.93707 5.1449-1.0691.82294-.0622 2.4722.13364 2.4722.13364"/>
  </g>
  <path d="m88.466 63.545c.64931.0069 1.3556.43437 1.6704 1.0023.6049 1.091.05971 2.5007-.06682 3.7418-.18387 1.8035-1.0023 5.3454-1.0023 5.3454-.29136.24181-.8418.23848-1.1359 0 0 0-.95362-3.5554-1.1359-5.3788-.12518-1.2522-.60305-2.6895.03341-3.7752.31785-.54218 1.0086-.94213 1.637-.93544z" stroke="#000" stroke-width=".26458px"/>
  <circle cx="88.416" cy="76.457" r="1.8542"/>
 </g>
</svg>
