<svg width="43.813mm" height="36.876mm" version="1.1" viewBox="0 0 43.813 36.876" xmlns="http://www.w3.org/2000/svg">
 <g transform="translate(-249.34 -143.05)">
  <g>
   <path d="m261.6 145.64s2.43-1.2546 5.753-1.9644c3.6572-.78124 6.361-.60804 6.361-.60804s.77965 4.538.98222 6.8287c.20474 2.3153.23386 6.969.23386 6.969l3.9756 2.9466s.50012 7.4172.51451 11.132c.005 1.217-.14031 3.6482-.14031 3.6482l-.70159-.3274s-.41625-1.6408-.51449-2.4789c-.37946-3.2376-.49111-9.7754-.49111-9.7754l-2.0814.14032.0468 3.8821-.42095 1.7197-.67937-1.0805-.069-4.381-6.8287 1.3564s-.39058 7.9143-.93543 11.833c-.0985.70866-.42095 2.1048-.42095 2.1048l-.56126-.18709s-.36695-3.8313-.3742-5.753c-.0102-2.7172.46773-8.1384.46773-8.1384l-1.7306-3.695s-.19135 3.7817-.42095 5.6594c-.15741 1.2874-.65481 3.8353-.65481 3.8353h-.60804s-.15147-2.9615-.14031-4.4434c.0176-2.3411.28989-4.675.3274-7.0158.0342-2.1359.0675-4.2777-.0935-6.4078-.14704-1.9458-.79521-5.7998-.79521-5.7998z"/>
   <path d="m262.87 163.52-.90237.00097c-3.1566.4577-5.3617.90541-8.1618 2.2531-2.019.97173-4.3857 2.7282-4.4639 4.9482-.0815 2.314 2.1788 4.5536 4.2785 5.4723 3.245 1.4198 6.2923 2.2227 9.5609 2.82 3.7842.69158 7.666 1.0487 11.508.86128 3.9989-.19508 8.0833-.65572 11.833-2.058 1.6379-.61246 3.3214-1.412 4.4901-2.7128 1.1211-1.2478 2.2663-2.5732 2.1281-4.5603-.15789-2.271-3.2296-3.5005-5.3086-4.1861-3.1605-1.0422-6.201-1.3781-9.3544-1.6838-2.553-.24751-5.136-.30544-7.694-.11694-2.8365.20902-5.9366 1.0191-9.2375 2.5023-1.6492.7411-3.9024 1.8016-3.8119 3.5313.10121 1.9353 2.8486 2.9133 4.6538 3.4845 3.4585 1.0943 6.6961 1.6535 10.15 1.7072 3.7521.0583 7.787.018 11.062-1.7773 1.2443-.6822 3.0335-1.7762 2.8297-3.1805-.22925-1.5799-2.4617-2.136-4.0692-2.5257-2.7689-.67133-5.7947-.67865-8.6996-.58465-1.5553.0503-3.7132.49963-5.0344.93828-.89675.29774-2.0868.81356-2.1458 1.7306-.0475.73717.76295 1.3642 1.5322 1.6011 1.2379.38128 3.6561.46987 5.5843.3685 1.7292-.0909 3.514-.45315 4.8904-1.3215l-.0662-.47955c-2.1774.51454-3.1181.71633-4.7129.82682-1.7902.12403-5.2435-.34136-5.2751-1.0749-.0442-1.0242 3.62-1.515 5.2917-1.5214 2.2556-.009 4.3573.1443 6.4988.51263 1.4774.2541 3.7743.75832 3.8199 2.2324.0463 1.4942-2.0383 1.9895-3.7247 2.4982-2.243.67652-4.6491.7961-6.9909.72643-2.9873-.0889-6.0566-.38486-8.847-1.4552-1.6989-.65166-4.5343-1.125-4.5971-2.9435-.0626-1.8113 2.676-2.5853 4.3656-3.2412 3.3303-1.2928 5.8462-1.3976 8.8305-1.5214 2.9712-.12319 5.9478.33476 8.8869.78171 2.8506.43347 5.1924 1.1448 7.41 2.6265 1.6685 1.1148 1.9711 2.2641.67917 4.3874-1.415 2.3254-3.5361 3.221-5.7644 3.9123-3.343 1.0372-9.3874 1.5187-14.089 1.1906-4.8102-.33563-10.412-1.4288-14.106-3.2081-1.8998-.91527-4.3667-2.3956-4.4152-4.531-.0435-1.9148 1.4474-2.983 2.745-3.9026 2.3904-1.6941 6.8216-2.0332 8.4584-2.3895z"/>
  </g>
 </g>
</svg>
