<svg width="43.436mm" height="28.484mm" version="1.1" viewBox="0 0 43.436 28.484" xmlns="http://www.w3.org/2000/svg">
 <g transform="translate(-1.5981 -70.774)">
  <g stroke="#000" stroke-width=".465">
   <g fill="#fff">
    <path d="m35.58 73.267-4.8224.65143s2.9032 2.523 3.1892 2.9766c.20584.32645.36628.80062.28349 1.2048-.2279 1.1126-2.4805 5.2208-2.4805 5.2208l8.0792 1.4174 1.9371 1.7481s-1.3701-7.005-1.3938-8.6935c-.0047-.33894.3249-.7807.66146-.99219 1.3647-.85754 3.3545-1.819 3.3545-1.819l-5.268-1.5355"/>
    <path d="m9.8055 79.38-5.384.26608s1.5075 1.5314 2.3257 2.2255c.68521.58127 2.1563 1.6177 2.1563 1.6177l3.6917 5.7964 2.1129 3.7885-.04151-5.9267s.15776-2.439.58129-3.5666c.28616-.7619.76895-1.448 1.2908-2.0725.78947-.94489 2.7383-2.4792 2.7383-2.4792l-5.8632.28397"/>
    <path d="m10.424 85.928 5.1783 1.5368-3.5079 2.1716.3503 8.8165-3.9584-5.8432s-1.6168 1.5576-2.4878 2.2637c-1.197.97036-3.7511 2.7016-3.7511 2.7016l3.5661-7.3707s-1.0044-1.1997-1.5473-1.7621c-.68079-.70527-2.1398-2.0172-2.1398-2.0172l4.823-.66412"/>
    <path d="m7.9346 86.68c-.41644-.16819-.80934-.50563-.98556-.91874-.15513-.36367-.12719-.81775.016704-1.186.15786-.404.47257-.79201.86863-.96886.50335-.22475 1.1364-.19046 1.6537 0 .37066.13647.73259.41161.90204.7684.22219.46788.26095 1.0882.03341 1.5535-.19055.38966-.63109.64395-1.044.77675-.45858.14748-.99826.15534-1.4449-.02506z"/>
    <path d="m9.8055 79.38c-.18409-.39966-.20028-.91249-.033409-1.3196.16726-.4081.55014-.73732.95215-.91874.44297-.1999.98676-.25312 1.4533-.11693.44257.12919.8792.43185 1.1025.83522.24365.44017.31725 1.035.13363 1.5034-.14244.36336-.51004.63102-.86863.7851-.53362.2293-1.1874.32074-1.7373.13362-.4255-.1448-.81421-.49378-1.0023-.90202z"/>
   </g>
   <g fill="none" stroke-linecap="round">
    <path d="m31.304 88.802s-.61637.01584-.83522.20045c-.45379.38279-.22014 1.2897-.70158 1.637-.75223.54274-1.979-.24586-2.7729.23386-.65572.39623-.57213 1.5555-1.2361 1.9377-.69551.40035-1.7036-.28887-2.4054.10022-.67268.37291-.58662 1.6242-1.3029 1.9043-.51074.19971-1.0553-.37784-1.6036-.36749-.2998.0057-.86862.23386-.86862.23386"/>
    <path d="m17.673 92.443s.70891-.18635 1.0691-.16704c.47206.02531.92633.53136 1.3698.3675.68378-.25269.60039-1.4474 1.2361-1.8041.73912-.41473 1.8101.29876 2.5391-.13363.67516-.4005.56457-1.598 1.2361-2.0045.81178-.49141 2.0935.38568 2.8397-.20045.45977-.36111.09716-1.2825.53454-1.6704.22059-.19564.86862-.16704.86862-.16704"/>
    <path d="m16.604 89.603s.63919-.20978.96885-.20045c.51844.01467 1.016.57833 1.5034.4009.72868-.26528.6557-1.5327 1.3363-1.9043.72391-.3952 1.764.32236 2.4722-.10022.65605-.39143.51743-1.5728 1.1693-1.9711.77117-.47123 1.9562.33738 2.7061-.16704.53314-.35863.31569-1.3592.83522-1.7373.19993-.14549.73499-.10023.73499-.10023"/>
    <path d="m18.876 85.227s.61415-.24246.93544-.23386c.45424.01216.86289.51424 1.3029.4009.88471-.22786 1.0728-1.5926 1.9043-1.9711.58865-.26794 1.3678.20556 1.9377-.10023.65944-.35383.67037-1.4627 1.3363-1.8041.70369-.3607 1.6834.35537 2.372-.03341.60544-.34184.59691-1.2934 1.1025-1.7707.20293-.19158.73499-.4009.73499-.4009"/>
    <path d="m17.673 82.387s.62724-.33232.96885-.33409c.56345-.0029 1.0744.72806 1.6036.53454.72287-.26435.52669-1.6031 1.2027-1.9711.7534-.4101 1.8329.50131 2.5725.06682.68288-.40118.41472-1.712 1.1025-2.1048.76496-.43682 1.882.58353 2.6393.13364.55241-.32816.39347-1.2707.83522-1.7373.17476-.18459.66817-.3675.66817-.3675"/>
   </g>
   <g>
    <path d="m35.58 73.267c-.15652-.40528-.2158-.90862-.03341-1.3029.18619-.40252.61346-.69948 1.0357-.83522.5628-.18094 1.2419-.16419 1.7707.10023.37111.18559.67607.55673.80181.95215.14055.44199.10775.98072-.11693 1.3865-.21579.38969-.64084.6792-1.0691.80181-.49967.14306-1.0907.10295-1.5535-.13363-.37966-.19408-.6816-.5711-.83522-.96885z" fill="#fff"/>
    <path d="m34.207 82.942-5.1499.89769s1.4681 1.2186 2.2442 1.7718c.99788.71125 3.0947 1.9844 3.0947 1.9844s-.34456 2.1326-.56696 3.1892c-.32889 1.5624-1.1339 4.6538-1.1339 4.6538s1.4664-1.473 2.1025-2.2915c.73309-.94333 1.9608-3.0002 1.9608-3.0002l4.0396 5.5043s-1.2245-7.2429-1.1576-8.3155c.03405-.54564.08372-1.1187.33073-1.6064.36314-.717 3.6853-4.6066 3.6853-4.6066l-5.7878 1.2048" fill="#fff"/>
    <path d="m34.979 80.5c.46378-.23984 1.0442-.31558 1.5535-.20045.40072.09059.80569.32774 1.0357.66817.26347.39001.39042.9322.26727 1.3865-.12596.46461-.52251.86868-.95215 1.0858-.46884.23691-1.0575.24808-1.5702.13363-.40174-.08968-.85782-.26478-1.0691-.61806-.27447-.459-.23684-1.1025-.05011-1.6036.13484-.36186.44208-.67453.7851-.85192z" fill="none"/>
   </g>
  </g>
 </g>
</svg>
