<svg width="38.286mm" height="19.83mm" version="1.1" viewBox="0 0 38.286 19.83" xmlns="http://www.w3.org/2000/svg">
 <g transform="translate(-375.62 -110.82)">
  <g>
   <path transform="matrix(.26458 0 0 .26458 375.62 110.82)" d="m105.4.0058594c-21.888-.41136-37.451 18.802-46.164 28.891-5.0443-9.7829-21.012-18.103-33.17-16.203-11.892 1.8585-25.822 11.162-26.061 24.992-.21468 12.472 10.909 30.546 24.686 33.705 21.017 4.8187 31.676-4.3076 45.264-14.432 10.155 13.749 18.464 18.687 39.088 17.91 21.121-.79604 35.894-15.606 35.66-37.186-.24873-22.929-18.353-37.284-39.303-37.678zm7.3359 24.916c3.7066 7.0472 4.904 13.884 3.8984 22.24-1.0396 8.6389-6.9937 13.568-12.955 15.555-5.0443-.99356-9.2981-2.3341-13.564-4.3945-4.2916-2.0726-12.805-7.4512-12.805-7.4512s10.697-10.174 16.473-14.637c6.9356-5.359 11.998-9.0196 18.953-11.312zm-76.848 6.7715c6.0145.0018 13.264 2.3579 16.775 5.1523-4.6622 6.2671-9.5155 12.041-16.279 14.979-6.4913 2.8195-13.603 4.5098-21.17 1.6055-1.7579-5.2736-1.6612-10.379 1.1465-14.215 3.9005-5.3295 11.747-7.1274 18.342-7.4902.3885-.02138.78458-.03137 1.1855-.03125z"/>
   <path d="m376.61 123.54c1.5773 4.0039 4.7657 6.1437 8.6607 5.9199 5.0353-.2893 10.423-5.8675 12.926-8.0789 2.5622-2.2631 5.4429-4.7942 8.8367-5.2048 2.4834-.30048 4.7134.45578 5.8054 1.4871-1.4357-4.1454-5.7812-6.3712-9.6089-6.2915-4.7055.0979-8.2911 3.6461-11.178 7.0957-2.3081 2.7576-4.5048 6.4265-8.0109 7.2318-2.514.57742-5.065.63132-7.431-2.1593z" fill="#fff"/>
   <path d="m394.71 125.45.891-.78151c1.8589 1.1153 4.2975 2.7951 7.4563 3.2426 2.8174.3992 5.2025.44488 8.438-1.2942-2.7299 2.9928-5.7818 3.6522-9.8075 3.3164-2.7465-.22913-4.7736-1.3287-6.9777-4.4833z" fill="#fff"/>
  </g>
 </g>
</svg>
