<svg width="32.38mm" height="34.672mm" version="1.1" viewBox="0 0 32.38 34.672" xmlns="http://www.w3.org/2000/svg">
 <g transform="translate(-216.95 -94.676)">
  <path transform="scale(.26458)" d="m868.78 384.53c-1.6654.16903-3.2681.92289-4.938.8497-1.1089-.009-2.1504.37997-3.0646.93947-1.4887.28249-3.4843 1.3966-4.7418 2.1759-1.8112.99852-2.4137 2.4365-3.8491 3.906-.54834.81516-1.1245 1.5955-1.6169 2.439-.27584 1.0568-1.7072 1.4003-1.8243 2.5297-1.1181 1.3791-1.3674 3.439-2.2213 4.9442-.44507 1.93-.40751 4.1187-.92641 6.0342-.27225 3.1959.74813 6.5959 1.596 9.7107.1147 1.1581.45885 2.3437 1.1287 3.3004.27916 1.3056 1.0726 2.4365 1.7478 3.5542.89183 1.0366 1.6163 2.2334 2.5367 3.2407.44366.7443 1.7118 1.86 1.7118 1.86l.21057 3.1426s-1.7726 1.4967-2.8294 2.0941c-.57516.44567-1.4233.53359-1.8199 1.2371-.81098.34834-1.3756 1.0553-2.2536 1.264-.77523.70091-1.759 1.0919-2.5757 1.7284-.80441.32903-1.3446 1.0267-2.1928 1.2668-.79098.64401-1.6922 1.0866-2.4517 1.7778-1.0314.59775-1.9614 1.3428-2.8885 2.0512-1.1894.6646-2.0335 1.8026-3.27 2.3682-1.408 1.1116-2.6444 2.4571-4.0676 3.5915-2.427 2.1679-4.6696 4.5839-6.5601 7.2168-.76389 1.3107-2.0446 2.6592-1.8036 4.2357-.23296 2.2941 1.172 4.8361 3.1724 5.4603 1.7935.99999 4.9938.49647 6.9427 1.0632 3.8613.47089 7.6963 1.1434 11.575 1.4836 2.0843.42353 4.1943.65953 6.2993.96541 3.0362.61384 6.1282.88641 9.143 1.5965 2.6086.35098 4.9857 1.7123 7.5789 2.1511l3.3951 1.3261c-.85543 1.6371-1.4109 3.0647-2.3205 4.6942-.62014 1.1237-3.9035 4.4216-2.7811 5.4041 1.4541 1.3119 6.3049-1.5287 7.8862-1.978 1.2495-.45202 2.4878-.91144 3.7116-1.4425 1.2885-.29839 2.3211-1.2107 3.654-1.3593 1.0916-.56083 2.182-1.1283 3.2959-1.6552 1.3764-.43814 2.5678-.90642 2.5678-.90642l10.25 3.518 15.809 1.1498-9.1924-11.137s-.18732-.6678 1.3535-.9588c2.4764-1.0428 5.1539-1.5367 7.7033-2.3855 2.3794-.59362 4.7288-1.321 7.0254-2.1603 1.7456-.33428 3.349-1.0896 5.0457-1.5879 1.95-.77226 3.9084-1.5275 5.778-2.4883 1.222-.27305 2.5097-.66807 3.7054-1.0261.76522-.64846 2.6414-1.0664 3.3449-1.7762 1.3486-1.0755 3.4958-2.2237 4.0973-3.963.48059-1.3658-1.4434-3.961-2.0077-5.1087-1.2353-1.2504-2.0978-2.7027-3.3828-3.9234-1.3893-1.7257-3.5159-3.2256-4.9429-4.8981-.8734-1.1881-2.1948-1.6347-3.2638-2.6616-1.346-1.2235-2.7598-1.7593-4.1161-2.9266-.72561-.86288-6.2424-5.5011-6.2424-5.5011l.42364-2.0654c.4494-1.3998 1.2971-2.6437 1.4898-4.1315.81177-1.6348 1.1473-2.9238 1.3866-4.6947.90874-3.3061 1.0248-7.1397.2832-10.449-.16859-1.5367.008-3.6809-.70127-5.0835-.23773-1.3903-1.1317-2.8132-1.7894-4.0614-.18693-1.1347-1.4237-1.5113-1.567-2.6499-.52279-.86209-1.0246-1.7241-1.5889-2.5705-1.3483-1.7156-2.7952-3.4451-4.6204-4.7091-.71324-.99063-2.0489-1.0372-2.9158-1.8303-1.2626-.39996-2.2884-1.3372-3.6543-1.4484-1.5693-1.2714-3.806-.54433-5.4442-1.6221-1.3365-.50731-2.9098-.19361-3.9809.71436-1.0917.2165-1.8064 1.1472-2.9272 1.2913-1.469.99951-3.4132.48552-4.8714 1.5078-2.1467.0736-4.25.11792-6.3826-.0183-.87132-.71962-2.0548-.62227-3.0491-.89321-.68088-.83782-1.8544-.66736-2.5463-1.4298-.81649-.27315-1.5797-.59477-2.258-1.1466-1.0409-.58184-2.1872-1.1495-3.4074-1.1366zm6.8024 3.8401c.022.12008-.0268-.10587 0 0zm34.97 2.8941c.0772.32169-.17845-.56611 0 0zm3.1782 2.9914c.034.13736-.0708-.21404 0 0zm7.4924 40.356c.0486.009-.046-.006 0 0zm15.456 23.819c-.24264.0682.096-.0358 0 0zm-.97745.18714c-.0793.30934.044-.23723 0 0z" fill="#fff"/>
  <path d="m229.6 100.33c-.33456-.77257-.26555-1.7348.0234-2.5256.34837-.95339 1.0418-1.8761 1.9416-2.3458 1.0426-.5443 2.3836-.60855 3.5164-.29198 1.0819.30236 2.1853.99574 2.7273 1.9797.53811.97678.6177 2.299.21444 3.3387-.37113.95688-1.2669 1.7492-2.2176 2.136-1.1399.46393-2.5442.4672-3.6921.0234-1.0623-.41071-2.0609-1.2693-2.5135-2.3144z" fill="#fff" stroke="#000" stroke-width=".6"/>
  <g fill="none" stroke="#000" stroke-linecap="round" stroke-width=".6">
   <path d="m237.37 119.22s-5.1642 4.1567-7.2029 6.7352c-.70165.88738-1.6838 2.9466-1.6838 2.9466s2.3665-.6022 3.5079-1.029c1.9603-.73301 3.7452-1.8882 5.7062-2.6192 2.404-.89615 5.6564-1.6043 8.0184-2.4492 1.4942-.53447 3.234-1.5752 3.3142-2.2885.0772-.68708-1.6756-2.4879-2.7265-3.541-1.1369-1.1393-3.7067-2.9466-3.7067-2.9466"/>
   <path d="m239.18 109.81s.7259 1.9435.75354 3.0482c.0317 1.2664-.8556 4.1084-.8556 4.1084s1.9712-1.1269 2.6854-1.8685c.76057-.78979 1.2938-2.069 1.637-3.1104.42248-1.282.33628-3.1719.1871-4.5135-.1406-1.2644-1.1737-2.6517-1.9644-3.6482-1.4124-1.78-4.4074-1.989-4.4074-1.989"/>
   <path d="m230.44 101.64s-2.4404-.16166-3.7928.86225c-.90494.6851-1.0425.88318-1.7206 1.7934-.71623.9614-.9999 2.0527-1.1967 3.2353-.17667 1.0616-.10818 1.9162.14311 2.9627.2296.95615.65845 1.6886 1.2794 2.451.70293.86317 1.529 1.6049 2.4841 2.1766.76614.45858 2.614 1.4698 2.614 1.4698s-.90498-2.3612-1.183-3.4616c-.17715-.70122-.31372-2.3665-.31372-2.3665"/>
  </g>
  <path d="m233.8 114.48s1.9085-2.175 2.6022-3.5108c.33465-.64438.83329-1.5147.82585-2.4851-.006-.73208.0413-1.7277-1.3791-1.9479-.92338-.14312-2.0792 1.3649-2.0792 1.3649s-1.3016-1.4561-2.1619-1.1806c-.91314.29234-1.0948 1.0422-1.1173 1.6975-.0325.94136.63145 1.8496 1.1197 2.6552.65634 1.0828 2.1898 3.4068 2.1898 3.4068z" fill="#fff" stroke="#000" stroke-width=".765"/>
  <g fill="none" stroke="#000" stroke-width=".6">
   <path d="m226.42 114.26s-2.8087 1.6534-4.3488 2.8087c-1.1746.88103-1.8867 1.3098-3.241 2.6821-.56914.57672-1.6323 1.667-1.5799 2.8985.0318.74707 1.15 1.3094 1.6904 1.3621 6.0432.58915 11.221 1.9417 11.221 1.9417"/>
   <path d="m227.06 120.34s2.4825.72956 3.6842 1.1471c.9501.33011 2.8696.883 2.8696.883" stroke-linecap="round"/>
   <path d="m238.87 124.97 2.4322 2.9466s-2.4966.0106-3.6978-.17909c-1.1447-.1808-3.2712-.8967-3.2712-.8967"/>
  </g>
 </g>
</svg>
