<svg width="48.891mm" height="49.465mm" version="1.1" viewBox="0 0 48.891 49.465" xmlns="http://www.w3.org/2000/svg">
 <g transform="translate(-170.94 -6.0197)">
  <g>
   <g stroke="#000" stroke-width=".26458px">
    <path d="m171.12 20.381s4.5366-5.3275 7.3499-7.3499c3.2512-2.3372 6.9076-4.2449 10.758-5.3454 4.2596-1.2176 8.8533-1.9569 13.23-1.2695 3.6663.57585 7.483 1.9069 10.223 4.4099 3.0316 2.7694 4.673 6.8997 5.8799 10.824 1.125 3.6583 1.1359 11.426 1.1359 11.426s-6.8822 1.1263-10.357 1.3363c-2.9347.17739-8.8199-.06682-8.8199-.06682s-.77788 6.0687-.80181 9.1206c-.0267 3.4053.73499 10.19.73499 10.19s-3.2131 2.0523-7.9627 1.6428c-4.7783-.41197-7.2048-3.0459-7.2048-3.0459s2.1178-7.1323 2.94-10.758c.6908-3.0463 1.6704-9.2208 1.6704-9.2208s-6.9119-2.649-10.023-4.6104c-3.2107-2.0244-8.7531-7.2831-8.7531-7.2831z"/>
    <path d="m186.55 51.384s2.6313-8.4795 3.4745-12.829c.84575-4.3626 1.576-13.238 1.576-13.238s2.4375-.38474 3.6358-.19235c1.6936.27192 4.7953 1.8668 4.7953 1.8668s-.30531 5.4846-.51902 8.2226c-.22455 2.8768-.76546 5.7341-.80181 8.6194-.0374 2.9688.60136 8.8867.60136 8.8867s-2.6149 1.3369-6.4813.90777c-4.5797-.50829-6.2808-2.2441-6.2808-2.2441z" fill="#fff"/>
    <path d="m173.35 19.655s9.8173-1.2784 14.694-.75595c4.9649.53194 9.8314 2.0422 14.458 3.9215 5.5909 2.2711 15.828 8.7879 15.828 8.7879s-.24414-7.6537-1.4174-11.245c-1.029-3.1495-2.3288-6.5081-4.8192-8.6935-2.8379-2.4903-6.7855-3.7239-10.536-4.1577-4.8542-.56149-10.184.4575-14.505 2.1261-2.8026 1.0824-5.6511 2.6199-8.1259 4.4734-2.0976 1.571-5.5757 5.543-5.5757 5.543z" fill="#fff"/>
   </g>
   <g fill="#000008">
    <circle cx="186.44" cy="14.317" r="1.5869"/>
    <circle cx="203.11" cy="11.711" r="2.0212"/>
    <circle cx="210.11" cy="21.249" r="1.637"/>
   </g>
  </g>
 </g>
</svg>
