<svg width="50.13mm" height="38.409mm" version="1.1" viewBox="0 0 50.13 38.409" xmlns="http://www.w3.org/2000/svg">
 <g transform="translate(-301.28 -38.614)">
  <g>
   <path transform="scale(.26458)" d="m1221.9 145.94c-2.3868-.004-5.5643.0428-8.7265.23828-7.041.43519-13.352 2.1113-13.352 2.1113s.1555 17.266-.6973 25.84c-.294 2.9563-1.5195 8.7832-1.5195 8.7832l-15.82-2.3711-4.9688-26.596s-4.1468 1.1111-9.7597 3.9473c-5.6518 2.8558-8.3536 5.377-8.3536 5.377s4.399 8.6362 4.3575 15.209c-.05 7.7464-.076 23.693-.076 23.693s-2.1358 1.17-4.8965 1.6934c-2.8818.54637-4.4277.2168-4.4277.2168l-5.9629-24.916s-2.5478.20915-5.5332 2.5723c-2.9038 2.2985-3.4082 4.7656-3.4082 4.7656l6.7265 14.139s4.7894 11.075 5.043 12.688c.3096 1.967-.8398 21.936-.8398 21.936l2.4453 1.1465.5215-15.223 1.3886.85352-.457 27.59 1.5274 2.9805 1.7578.0762.4589-28.508 11.082-2.6738-1.9492 45.506 1.5136.43359 3.836-27.617 23.131 9.5664.2168 30.373 1.6739.0527 1.3515-30.047 16.43-13.025-.3789 26.428 1.4063-.0547 1.0253-4.8086.9727-27.834-21.18-6.6797-.076-9.707-9.0195-3.5156-4.3555-12.381 13.223-9.0957-.3828 21.859 2.0644.15235v-3.8223l2.1387-4.8906.8418-20.023 4.5859 5.4258-.1543 22.088 2.9825-4.3574.5019-16.328 11.879-3.1602v6.5723l1.1465 2.6758 2.1387.6875.2304-10.93 7.7188-2.0625-1.7578 26.061 1.6055.23047 1.375-3.668 2.0644-23.924-9.5547-8.7891.2301-26.902s-1.5976-.0529-3.9844-.0566zm-55.98 47.846 12.375 4.0547-12.43 3.6738z"/>
   <path transform="scale(.26458)" d="m1253 148.06-3.5157 24.992s-3.0154 2.9606-4.6621 4.2793c-2.2286 1.7847-7.0312 4.8906-7.0312 4.8906l-1.1465 26.98 2.1387.22852 1.4531-4.7383.8398-19.184 5.6739 1.1465-1.0117 9.707 1.5664.15234 1.3379-2.3691.8066-6.9941 11.721 2.1211-1.709 21.076 1.4453.0976 1.543-5.1973 1.668-15.619 6.6797-4.2383-2.5821 16.109-3.0898 15.889-17.322 1.5176-.6113 8.2559-20.178 4.8906s-1.4705 10.18-2.0136 15.293c-.6558 6.1739-1.502 18.564-1.502 18.564l2.3692.0762 4.1757-28.072 11.609 22.008s-1.0022 7.4208-1.4199 10.658c-.518 4.015-.7039 7.2022-.9121 11.357-.1429 2.8493-.3652 8.7715-.3652 8.7715l2.1132.39454 3.4473-29.549 10.814-2.1797.3437 5.3125h2.1406l.8789-6.0762 19.295-3.5488-1.1426 29.65 1.834.15234 5.1211-57.092 16.967 6.5723-.076 28.584 2.2929.0762 1.2579-28.244 4.3125-5.8301.6972 16.014 1.6035-2.5703 1.0704-23.238s4.7877-8.1342 7.2617-12.152c3.1206-5.0686 6.4956-9.6306 8.9414-11.465 0 0 .061-2.7109-.459-5.502-.6086-3.2658-2.1387-4.4336-2.1387-4.4336l-16.357 29.195s3.7381-16.007 6.4199-24.15c3.4942-10.61 5.7324-22.699 5.7324-22.699s-2.3633-3.1298-6.6484-6.0391c-4.1334-2.8063-8.2539-4.3555-8.2539-4.3555s-3.6835 5.2787-5.0449 8.1777c-1.863 3.967-2.5106 8.4144-4.2031 12.457-1.1133 2.6589-3.8985 7.7207-3.8985 7.7207l-20.33 3.7441s3.7309-15.441 4.6621-23.311c.5502-4.6332 1.1466-14.827 1.1466-14.827s-7.5809-2.3331-13.375-3.0577c-4.3459-.47548-8.0545-.50306-12.381-.38087zm18.877 48.455 10.701 8.7891-10.318 11.77-4.7382.0762zm37.488 5.082-2.9414 12.496-8.9434-4.0508 1.0704-6.5723zm-13.643 2.332-.7265 5.043-7.1446-3.4394z"/>
  </g>
 </g>
</svg>
