<svg width="36.288mm" height="36.893mm" version="1.1" viewBox="0 0 36.288 36.893" xmlns="http://www.w3.org/2000/svg">
 <g transform="translate(-67.939 -103.62)">
  <path d="m70.729 140.47s-2.8882-3.0333-2.7876-7.7485c.05862-2.7458 1.1871-5.6114 3.2658-7.4063 4.8761-4.2106 7.4352-3.5453 10.821-6.5798 1.6556-1.484 2.8469-3.0601 3.0643-4.96.27237-2.3802-.25766-4.6398-2.1734-6.8508-2.3265-2.6851-5.7878-2.8584-5.7878-2.8584s4.8925-.8326 7.2052-.21261c2.4706.66232 4.8572 2.0667 6.5673 3.9688 1.6157 1.7971 2.6423 4.189 3.0711 6.5673.38123 2.1148-.37798 6.7091-.37798 6.7091s2.3256-2.1785 2.7876-3.7325c.91383-3.0737-.42522-5.7405-.42522-5.7405s2.8234 1.7949 3.5435 6.6382c.37218 2.503.29652 3.6584-.14174 5.4807-.30469 1.2669-1.63 3.7798-1.63 3.7798s2.1634-1.4705 2.9529-2.4332c.7291-.88905 1.2671-1.8675 1.4646-3.0002.21416-1.2281-.47247-3.8034-.47247-3.8034s2.1313 2.251 2.4568 4.7956c.23751 1.8563.0276 3.8352-.66146 5.5752-.94677 2.3905-2.4355 3.8522-3.1183 6.0004-.59711 1.8785-.80321 5.8586-.80321 5.8586z"/>
 </g>
</svg>
