<svg width="18.569mm" height="18.569mm" version="1.1" viewBox="0 0 18.569 18.569" xmlns="http://www.w3.org/2000/svg">
 <g transform="translate(-303.22 -5.7475)">
  <g>
   <path d="m303.22 5.7475h18.569v18.569h-18.569z" fill="#fff"/>
   <path transform="scale(.26458)" d="m1146 21.723v11.352c.4097.28578 15.568 10.842 24.207 13.801 1.6724.57277 3.5341 1.1751 5.25.75 2.5483-.63136 3.9506-3.6177 6.375-4.625 1.2082-.50198 2.5682-.56176 3.875-.625 3.2944-.15942 6.586.56312 9.875.31641 1.5729-.11796 5.1113-.7793 5.1113-.7793s.034 1.795-.2363 2.5879c-.3133.92094-1.1488 1.6542-2 2.125-2.6386 1.4593-5.3641.5378-8.125 1.75-.7096.31158-2.25 1.4375-2.25 1.4375s2.7386 3.5244 4.625 4.9375c2.4325 1.8222 5.3447 2.8961 8 4.375 2.8038 1.5617 5.1624 2.8921 8.375 4.75 1.9293 1.1157 2.1557 2.0884 1.75 3.25-.3137.89874-1.2249 1.282-2.375.75-4.608-2.1313-13.875-6.375-13.875-6.375l-.5801.92578s9.1183 6.356 14.205 9.8242c1.1086.75586 2.3838 2.4424 1.75 3.625-.5762 1.0751-2.6115 1.1787-3.625.5-4.1726-2.7943-13.934-9.375-13.934-9.375l-.8457.98438s7.5145 5.6866 12.029 8.7656c1.1571.78917 2.4941 2.7766 1.625 3.875-1.1009 1.3912-3.8422.20458-5.25-.875-3.5878-2.7512-12.678-9.125-12.678-9.125l-.8223.875s5.4799 5.0432 8.875 7.75c.9272.73923 1.9412 2.5148 1.125 3.375-1.0785 1.1366-3.3344-.23883-4.5312-1.25-3.6184-3.0569-6.1384-5.8073-9.8887-7.8164-1.6499-.88389-4.0046-1.8641-5.6406-2.7734-1.6-.88926-3.0659-2.182-4.3887-3.4473-2.1296-2.037-3.3251-3.363-5.7715-5.0059-6.0737-4.0787-20.105-8.7725-20.236-8.8164v38.389h70.182v-70.182z" fill="#000505"/>
  </g>
 </g>
</svg>
