<svg width="54.904mm" height="59.811mm" version="1.1" viewBox="0 0 54.904 59.811" xmlns="http://www.w3.org/2000/svg">
 <g transform="translate(-2.6931 -4.5357)">
  <g>
   <path d="m15.435 33.276 15.034-9.3544s1.6041-4.0397 2.7395-5.8799c1.074-1.7407 2.3923-3.3352 3.8086-4.8109 1.6076-1.675 5.2786-4.5436 5.2786-4.5436l13.297 11.693s-4.608 2.3888-6.5481 4.0759c-1.5989 1.3903-2.9596 3.0768-4.0759 4.8777-1.0508 1.6953-2.4054 5.479-2.4054 5.479l2.5391 20.446-18.976 9.0872-14.967-10.557z"/>
   <g fill="#fff">
    <path d="m32.206 24.657s1.4009-3.6695 2.4054-5.3454c1.0123-1.6889 2.2628-3.2394 3.6081-4.6772 1.2182-1.302 4.009-3.5413 4.009-3.5413l10.089 8.8867s-3.1829 1.9002-4.5436 3.1404c-1.5892 1.4484-2.994 3.1268-4.1427 4.9445-.94237 1.4912-2.205 4.8109-2.205 4.8109z"/>
    <path d="m17.105 36.417 9.8222 8.2185-1.47 16.103-11.359-7.4835z"/>
    <path d="m28.798 44.435 11.893-7.7508 2.5391 17.373-15.568 7.0158z"/>
    <path d="m18.308 33.593c-.09154.71103.81653 2.2703 1.6064 3.1419.773.85298 1.8679 1.3683 2.9057 1.8663 1.0709.51385 2.2163.88719 3.3782 1.1339 1.2225.25961 2.4886.47472 3.7325.35435 1.1606-.11231 2.3057-.48269 3.3545-.99219.95514-.46396 1.8832-1.0579 2.5986-1.8426.62512-.68572 1.301-1.4864 1.3938-2.4096.10632-1.058-.33418-2.2077-1.0158-3.0238-.74331-.88991-1.9466-1.313-3.0474-1.6773-1.2676-.41952-2.6346-.59665-3.9688-.54334-1.2486.04989-2.5748.18669-3.6616.8032-.94972.5387-1.9456 1.3357-2.2442 2.386-.24833.87345.02542 1.9236.54334 2.6695.53463.76995 1.5051 1.1679 2.386 1.4883 1.0612.38595 2.2369.63379 3.3545.47247.94172-.13593 1.9945-.44608 2.5986-1.1812.5445-.66257.86526-1.6917.59059-2.5041-.25447-.75265-1.0805-1.2875-1.8426-1.5119-.85923-.25294-1.9371-.20858-2.6695.30711-.53844.37916-1.0797 1.1461-.87407 1.7718.08028.24424.42894.33216.68508.35435.28782.02493.63953-.0399.82682-.25986.28374-.33322-.15381-1.0272.18899-1.2993.3652-.28987.98496-.10607 1.3938.11812.47781.26201.8983.76251.99219 1.2993.08109.46366-.10805.99876-.42522 1.3465-.39715.43548-1.0433.62866-1.63.68508-.88086.08471-1.7991-.16407-2.5986-.54334-.66779-.31677-1.3395-.76289-1.7245-1.3938-.32262-.52862-.518-1.2158-.37798-1.819.16241-.69966.71733-1.3147 1.3229-1.7009.91961-.58651 2.0985-.72201 3.1892-.73233 1.1505-.01089 2.3162.26603 3.3782.7087.81846.34116 1.6321.80136 2.2206 1.4647.5609.63223 1.1379 1.4227 1.1339 2.2679-.0035.74308-.51587 1.4346-1.0158 1.9844-.65988.72563-1.5875 1.177-2.4805 1.5828-.86659.39381-1.793.7102-2.7403.8032-1.1409.112-2.3107-.03949-3.4254-.3071-1.0891-.26147-2.1513-.68682-3.1183-1.252-.79311-.46358-1.5701-1.0118-2.1497-1.7245-.62436-.76777-.94395-2.2131-1.3465-2.6458-.16802-.18059-.52706-.12346-.77958-.05906-.2455.06262-.60548.16212-.63783.41341z"/>
   </g>
   <g>
    <path d="m2.6931 27.498v-7.9375s3.2662-.71558 4.9137-.61421c1.6699.10275 3.3178.59549 4.8664 1.2284 1.7052.69692 3.3133 1.6624 4.7719 2.7876 1.8693 1.442 5.0082 5.0082 5.0082 5.0082s-4.0869-1.9815-6.2366-2.6931c-1.3672-.45258-2.769-.88292-4.205-.99219-1.5754-.11987-3.2282-.1286-4.7247.37798-1.651.55887-4.394 2.8348-4.394 2.8348z"/>
    <path d="m8.3155 10.961 3.6853-4.9609s3.3499 1.4788 4.6775 2.6931c1.2348 1.1294 2.1045 2.6287 2.8821 4.1105.90531 1.7253 1.5434 3.5945 2.0316 5.4807.57491 2.221 1.0394 6.8036 1.0394 6.8036s-2.1563-4.0896-3.449-6.0004c-1.0116-1.4953-2.0544-2.9996-3.3545-4.2522-.88472-.85237-1.8953-1.5901-2.9766-2.1734-1.4211-.76665-4.5357-1.7009-4.5357-1.7009z"/>
    <path d="m30.947 4.5357 4.7719 5.1972s-3.3212 2.2096-4.6302 3.6853c-1.3139 1.4812-2.2567 3.2728-3.1183 5.0554-1.1664 2.4132-2.7403 7.5595-2.7403 7.5595s-.21627-5.5351.14174-8.2682c.3056-2.333.79633-4.6787 1.7009-6.8508.95633-2.2964 3.8743-6.3783 3.8743-6.3783z"/>
    <path d="m55.993 37.052s-3.3978-2.2831-5.312-2.94c-1.6313-.55976-5.1115-.80181-5.1115-.80181l-.20045.80181s3.2457.55734 4.744 1.2027c1.4896.64164 4.1093 2.6059 4.1093 2.6059z"/>
    <path d="m57.597 27.263-.83522 1.6704s-3.5648.06911-5.2786.50113c-1.5002.37816-4.2763 1.8041-4.2763 1.8041l-.10022-.80181s2.7609-1.7998 4.3097-2.3052c1.9778-.64534 6.1806-.86863 6.1806-.86863z"/>
   </g>
  </g>
 </g>
</svg>
